<svg clip-rule="evenodd" fill-rule="evenodd" height="512" image-rendering="optimizeQuality" shape-rendering="geometricPrecision" text-rendering="geometricPrecision" viewBox="0 0 512 512" width="512" xmlns="http://www.w3.org/2000/svg" xmlns:xodm="http://www.corel.com/coreldraw/odm/2003"><g id="Layer_x0020_1"><g fill="#5a5a5a"><path d="m326.36 445.63h-140.72c-13.3 0-24.11-10.82-24.11-24.11v-140.72c0-13.3 10.81-24.11 24.11-24.11h140.72c13.29 0 24.11 10.81 24.11 24.11v140.72c0 13.29-10.82 24.11-24.11 24.11zm-140.72-177.43c-6.95 0-12.6 5.65-12.6 12.6v140.72c0 6.95 5.65 12.6 12.6 12.6h140.72c6.94 0 12.6-5.65 12.6-12.6v-140.72c0-6.95-5.66-12.6-12.6-12.6z"/><path d="m256 422.85c-11.9 0-21.58-9.68-21.58-21.58v-28.53h-28.53c-11.9 0-21.58-9.68-21.58-21.58s9.68-21.58 21.58-21.58h28.53v-28.53c0-11.9 9.68-21.58 21.58-21.58s21.58 9.68 21.58 21.58v28.53h28.53c11.9 0 21.58 9.68 21.58 21.58s-9.68 21.58-21.58 21.58h-28.53v28.53c0 11.9-9.68 21.58-21.58 21.58zm-50.11-81.76c-5.56 0-10.07 4.52-10.07 10.07s4.51 10.07 10.07 10.07h34.28c3.18 0 5.76 2.57 5.76 5.75v34.29c0 5.55 4.52 10.07 10.07 10.07 5.55 0 10.07-4.52 10.07-10.07v-34.29c0-3.18 2.57-5.75 5.75-5.75h34.29c5.55 0 10.07-4.52 10.07-10.07s-4.52-10.07-10.07-10.07h-34.29c-3.18 0-5.75-2.58-5.75-5.76v-34.28c0-5.55-4.52-10.07-10.07-10.07s-10.07 4.52-10.07 10.07v34.28c0 3.18-2.58 5.76-5.76 5.76z"/><path d="m459.8 361.34c-3.18 0-5.76-2.57-5.76-5.75v-99.61c0-3.17 2.58-5.75 5.76-5.75 3.17 0 5.75 2.58 5.75 5.75v99.61c0 3.18-2.58 5.75-5.75 5.75z"/><path d="m459.8 452.09c-3.18 0-5.76-2.58-5.76-5.75v-40.56c0-3.18 2.58-5.76 5.76-5.76 3.17 0 5.75 2.58 5.75 5.76v40.56c0 3.17-2.58 5.75-5.75 5.75z"/><path d="m52.2 361.34c-3.17 0-5.75-2.57-5.75-5.75v-99.61c0-3.17 2.58-5.75 5.75-5.75 3.18 0 5.76 2.58 5.76 5.75v99.61c0 3.18-2.58 5.75-5.76 5.75z"/><path d="m52.2 452.09c-3.17 0-5.75-2.58-5.75-5.75v-40.56c0-3.18 2.58-5.76 5.75-5.76 3.18 0 5.76 2.58 5.76 5.76v40.56c0 3.17-2.58 5.75-5.76 5.75z"/></g><g><path d="m458.83 501.37h-405.66c-23.54 0-42.69-19.15-42.69-42.69v-350.65c0-23.54 19.15-42.69 42.69-42.69h33.9v11.51h-33.9c-17.19 0-31.18 13.99-31.18 31.18v350.65c0 17.19 13.99 31.18 31.18 31.18h405.66c17.19 0 31.18-13.99 31.18-31.18v-350.65c0-17.2-13.99-31.18-31.18-31.18h-33.91v-11.51h33.91c23.54 0 42.69 19.15 42.69 42.69v350.65c0 23.54-19.16 42.69-42.69 42.69zm-360.25-430.35v.07 22.22zm2.65 33.87c.18.39.38.77.59 1.15l.31.57.33.55c.23.37.46.73.7 1.09l.36.53h.01l.37.52.39.51h.01c.26.33.53.66.81.99zm3.88 5.91c.42.48.86.95 1.31 1.41-.45-.46-.89-.93-1.31-1.41zm1.78 1.86c.61.59 1.26 1.15 1.94 1.68-.68-.53-1.33-1.09-1.94-1.68zm3.49 2.82c.72.48 1.45.92 2.21 1.34-.76-.42-1.49-.86-2.21-1.34zm3.36 1.93c1.17.56 2.39 1.04 3.64 1.43-1.25-.39-2.47-.87-3.64-1.43zm4.91 1.8c.64.16 1.29.3 1.95.42-.66-.12-1.31-.26-1.95-.42zm4.62.76c.68.05 1.36.08 2.06.08-.7 0-1.38-.03-2.06-.08zm40.31-54.63h184.84v27.97-16.46h-184.84zm196.35 5.72v.03 22.22zm10.24 43.28c.67.53 1.37 1.03 2.1 1.49-.73-.46-1.43-.96-2.1-1.49zm7.93 4.3c.83.28 1.68.52 2.54.72-.86-.2-1.71-.44-2.54-.72zm3.19.87c1.3.26 2.64.43 4.01.5-1.37-.07-2.71-.24-4.01-.5zm4.69.53.69.01z" fill="#5a5a5a"/></g><path d="m495.76 212.46h-479.52c-3.18 0-5.76-2.58-5.76-5.76s2.58-5.75 5.76-5.75h479.52c3.18 0 5.76 2.57 5.76 5.75s-2.58 5.76-5.76 5.76z" fill="#5a5a5a"/><path d="m412.79 184.18h-313.58c-3.18 0-5.76-2.57-5.76-5.75v-24.35c0-3.18 2.58-5.76 5.76-5.76h313.58c3.18 0 5.75 2.58 5.75 5.76v24.35c0 3.18-2.57 5.75-5.75 5.75zm-307.83-11.51h302.08v-12.84h-302.08z" fill="#5a5a5a"/><g id="_1983705062672" fill="#cced00"><path d="m125.33 131.56c-21.1 0-38.26-17.16-38.26-38.25v-44.43c0-21.09 17.16-38.25 38.26-38.25 21.09 0 38.25 17.16 38.25 38.25v44.43c0 21.09-17.16 38.25-38.25 38.25zm0-109.42c-14.75 0-26.75 11.99-26.75 26.74v44.43c0 14.74 12 26.74 26.75 26.74 14.74 0 26.74-12 26.74-26.74v-44.43c0-14.75-12-26.74-26.74-26.74z"/><path d="m386.67 131.56c-21.09 0-38.25-17.16-38.25-38.25v-44.43c0-21.09 17.16-38.25 38.25-38.25s38.25 17.16 38.25 38.25v44.43c0 21.09-17.16 38.25-38.25 38.25zm0-109.42c-14.75 0-26.74 11.99-26.74 26.74v44.43c0 14.74 11.99 26.74 26.74 26.74 14.75 0 26.74-12 26.74-26.74v-44.43c0-14.75-11.99-26.74-26.74-26.74z"/></g></g></svg>