<svg id="Layer_1" enable-background="new 0 0 134 134" height="512" viewBox="0 0 134 134" width="512" xmlns="http://www.w3.org/2000/svg"><g><path d="m122.35 128.25h-4.47c-.11-2.32-.38-8.52-.5-14.01 0-.01-.01-.02-.01-.04 0-.01 0-.02 0-.03-.61-6.5-1.95-26.41-2.36-32.52.92.2 2.09.04 3.37-.94 3.22-2.48 3.94-17.92 3.94-23.13 0-4.49-2.16-8.37-4.44-12.48-2.03-3.65-4.13-7.43-4.75-11.82-.78-5.5-3.81-8-6.47-9.14 7.55-1.49 14.8-.89 15.15-.86.57.05 1.07-.39 1.1-.95.02-.53-.39-.99-.93-1.04-1.09-.1-10.96-.85-19.95 1.96-.48.15-.77.63-.69 1.12s.51.86 1.01.84c.31-.01 7.58-.09 8.78 8.36.67 4.76 2.86 8.7 4.98 12.51 2.16 3.87 4.19 7.53 4.19 11.5 0 9.82-1.54 20.29-3.16 21.54-1.44 1.1-2.29.38-2.51.14-.28-.33-.74-.44-1.14-.28s-.65.56-.62.99c.02.27 1.75 26.56 2.48 34.32.12 5.43.38 11.55.49 13.94h-1.36c-.97-2.13-1.64-5.36-2.1-10.03l-1.01-16.16c-.33-5.26-.86-11.19-2.26-15.35-3.52-10.34-.24-26.7-.2-26.86.07-.33-.03-.67-.27-.91-5.89-5.9-8.84-15.91-8.87-16.01-.1-.34-.37-.6-.71-.69s-.71.01-.96.26c-2.67 2.68-11.62 3.26-16.06 3.28.05-1.09-.29-2.25-.99-3.47.98.14 1.95.21 2.88.21 7.37 0 12.9-4 13.18-4.21.37-.27.5-.76.33-1.19-1.01-2.42-.17-6.68-.17-6.72.08-.39-.08-.79-.41-1.01-.33-.23-.75-.24-1.09-.04-3.55 2.14-6.47 2.83-8.69 2.05-2.95-1.04-4.22-4.5-4.98-6.57-.16-.42-.29-.78-.41-1.07-.73-1.66-2.8-1.37-4.8-1.09-3.6.51-6.02.58-6.77-2.96-.97-4.55-3.37-6.48-5.21-7.29-2.9-1.27-6.53-.78-10.2 1.39-6.59 3.91-3.87 10.27-2.07 14.48l.33.73c.91 2.16 2.94 3.07 5.2 3.24l-.9.53c-.28.16-.46.45-.49.76s.09.63.33.84l.63.56-3.63.91c-.46.12-.78.54-.76 1.02l.15 3.29-3.26-1.7c-.39-.2-.86-.13-1.17.18l-3.01 3.01c.35-3.57.78-9.86.15-15.17-1.06-9.03-1.09-17.4 10.01-20.63 10.49-3.05 14.64 2.99 17.66 7.4.39.57.76 1.1 1.11 1.58 2.02 2.75 4.02 2.51 5.63 2.32 1.3-.16 2.32-.28 3.6 1 .78.78 1.42 2.31 2.04 3.8 1.1 2.62 2.23 5.32 4.63 5.62 2.17.27 4.59-1.55 7.84-5.88 9.14-12.18 22.97-11.7 23.16-11.69h.03c.54 0 .97-.43.98-.98.01-.54-.43-1-.97-1.02-.61-.02-15.01-.56-24.8 12.49-3.31 4.41-5.07 5.21-5.99 5.1-1.25-.15-2.2-2.41-3.03-4.41-.7-1.67-1.42-3.39-2.47-4.44-1.97-1.97-3.79-1.75-5.25-1.57-1.47.18-2.45.3-3.78-1.52-.34-.47-.7-.98-1.07-1.53-3.18-4.64-7.99-11.65-19.87-8.19-13.66 3.97-12.27 15.75-11.45 22.78.89 7.51-.45 17.42-.47 17.52-.06.43.16.84.54 1.03.14.07.29.1.45.1.26 0 .51-.1.71-.29l.85-.85c.48 1.52 1.11 2.93 1.88 4.19 1.91 3.1 4.82 5.34 7.98 6.16 1.07.27 2.15.39 3.23.39 2.86 0 5.68-.79 8.08-1.47l8.78-2.46c1.47-.41 4.11-1.17 5.25-3.24 2.77.02 12.31-.12 16.83-2.91 1.02 2.98 3.81 10.13 8.56 15.1-.56 2.98-3 17.47.37 27.38 1.33 3.93 1.84 9.7 2.16 14.83l1.01 16.19c.52 5.38 1.34 8.99 2.58 11.34.17.33.51.53.88.53h8.45c.55 0 1-.45 1-1s-.44-.99-.99-.99zm-67.54-100.03-.3-.7c-2.17-5.08-3.46-9.18 1.25-11.98 3.1-1.83 6.07-2.29 8.37-1.28 2.03.89 3.44 2.92 4.06 5.87 1.2 5.63 6.09 4.94 9.01 4.52.85-.12 2.44-.35 2.69-.09.11.25.23.57.36.95.82 2.24 2.35 6.41 6.19 7.76 2.39.84 5.29.43 8.61-1.24-.13 1.44-.17 3.4.29 5.06-1.98 1.24-8.56 4.8-16 2.81-.06-.07-.12-.15-.18-.21-2.68-3.09-6.35-7.32-11.31-8.53-1.37-.33-2.75-.42-4.1-.42.01-.12 0-.25-.03-.37-.16-.53-.71-.83-1.25-.67-.63.22-6.27 1.81-7.66-1.48zm20.9 20.88-8.79 2.46c-3.07.86-6.88 1.93-10.27 1.07-2.66-.69-5.13-2.61-6.78-5.27-.86-1.39-1.51-3-1.96-4.77l2.04-2.03 4.15 2.17c.32.17.7.15 1-.04s.48-.53.46-.89l-.19-4.2 4.68-1.17c.36-.09.64-.37.73-.73s-.03-.74-.31-.99l-1.02-.91 1.62-.96.41-.02c2.06-.08 4.01-.16 5.91.3 4.01.98 7.02 4.15 10.27 7.9.41.47.94 1.1 1.39 1.8.95 1.44 1.24 2.62.88 3.64 0 0-.04.12-.05.13-.6 1.41-2.46 2.03-4.17 2.51z"/><path d="m66.18 36.96h-1.58c-.55 0-1 .45-1 1s.45 1 1 1h1.58c.55 0 1-.45 1-1s-.44-1-1-1z"/><path d="m72.11 42.75h-1.55c-.55 0-1 .45-1 1s.45 1 1 1h1.55c.55 0 1-.45 1-1s-.44-1-1-1z"/><path d="m61.39 40.33h-1.36c-.55 0-1 .45-1 1s.45 1 1 1h1.36c.55 0 1-.45 1-1s-.45-1-1-1z"/><path d="m65.16 45.71h-1.54c-.55 0-1 .45-1 1s.45 1 1 1h1.54c.55 0 1-.45 1-1s-.45-1-1-1z"/><path d="m57.2 45.71h-1.54c-.55 0-1 .45-1 1s.45 1 1 1h1.54c.55 0 1-.45 1-1s-.45-1-1-1z"/><path d="m35.62 45.71h-23.97c-.55 0-1 .45-1 1v11.79c0 .55.45 1 1 1h1.81v61.33c0 5.61 4.56 10.17 10.17 10.17s10.17-4.56 10.17-10.17v-61.32h1.81c.55 0 1-.45 1-1v-11.8c.01-.55-.44-1-.99-1zm-11.99 83.29c-4.51 0-8.17-3.67-8.17-8.17v-46.09h16.34v46.09c.01 4.51-3.66 8.17-8.17 8.17zm8.18-56.26h-16.35v-13.23h16.34v13.23zm2.81-15.23h-1.81-18.35-1.81v-9.79h21.96v9.79z"/><path d="m25.16 113.28c-2 0-3.63 1.63-3.63 3.63s1.63 3.63 3.63 3.63 3.63-1.63 3.63-3.63-1.63-3.63-3.63-3.63zm0 5.25c-.9 0-1.63-.73-1.63-1.63s.73-1.63 1.63-1.63 1.63.73 1.63 1.63-.74 1.63-1.63 1.63z"/><path d="m26.02 82.77c-2 0-3.63 1.63-3.63 3.63s1.63 3.63 3.63 3.63 3.63-1.63 3.63-3.63c-.01-2.01-1.63-3.63-3.63-3.63zm0 5.25c-.9 0-1.63-.73-1.63-1.63s.73-1.63 1.63-1.63 1.63.73 1.63 1.63c-.01.9-.74 1.63-1.63 1.63z"/><path d="m27.02 100.14c0-2.47-2.01-4.49-4.49-4.49-2.47 0-4.49 2.01-4.49 4.49s2.01 4.49 4.49 4.49c2.47 0 4.49-2.01 4.49-4.49zm-6.98 0c0-1.37 1.12-2.49 2.49-2.49s2.49 1.12 2.49 2.49-1.12 2.49-2.49 2.49-2.49-1.12-2.49-2.49z"/><path d="m71.32 71.84c-15.46 0-28.04 12.58-28.04 28.04s12.58 28.04 28.04 28.04 28.04-12.58 28.04-28.04-12.58-28.04-28.04-28.04zm0 54.09c-14.36 0-26.04-11.68-26.04-26.04s11.68-26.04 26.04-26.04 26.04 11.68 26.04 26.04-11.68 26.04-26.04 26.04z"/><path d="m71.32 77.18c-12.52 0-22.71 10.19-22.71 22.71s10.19 22.71 22.71 22.71 22.71-10.19 22.71-22.71-10.19-22.71-22.71-22.71zm0 43.42c-11.42 0-20.71-9.29-20.71-20.71s9.29-20.71 20.71-20.71 20.71 9.29 20.71 20.71-9.29 20.71-20.71 20.71z"/><path d="m80.29 90.27c0-3.59-2.92-6.51-6.51-6.51s-6.51 2.92-6.51 6.51 2.92 6.51 6.51 6.51c3.58 0 6.51-2.92 6.51-6.51zm-6.52 4.51c-2.49 0-4.51-2.02-4.51-4.51s2.02-4.51 4.51-4.51 4.51 2.02 4.51 4.51-2.02 4.51-4.51 4.51z"/><path d="m71.96 87.94-.43.39c-.41.37-.45 1-.08 1.41.2.22.47.33.75.33.24 0 .47-.08.67-.25l.43-.39c.41-.37.45-1 .08-1.41s-1.01-.45-1.42-.08z"/><path d="m62.75 96.73c-3.59 0-6.51 2.92-6.51 6.51s2.92 6.51 6.51 6.51 6.51-2.92 6.51-6.51-2.92-6.51-6.51-6.51zm0 11.02c-2.49 0-4.51-2.02-4.51-4.51s2.02-4.51 4.51-4.51 4.51 2.02 4.51 4.51-2.02 4.51-4.51 4.51z"/><path d="m61.4 101.14-.43.39c-.41.37-.45 1-.08 1.41.2.22.47.33.75.33.24 0 .47-.08.67-.25l.43-.39c.41-.37.45-1 .08-1.41s-1.01-.45-1.42-.08z"/><path d="m80.34 100.02c-3.59 0-6.51 2.92-6.51 6.51s2.92 6.51 6.51 6.51 6.51-2.92 6.51-6.51-2.92-6.51-6.51-6.51zm0 11.02c-2.49 0-4.51-2.02-4.51-4.51s2.02-4.51 4.51-4.51 4.51 2.02 4.51 4.51-2.02 4.51-4.51 4.51z"/><path d="m78.84 104.13-.43.39c-.41.37-.45 1-.08 1.41.2.22.47.34.75.34.24 0 .47-.08.66-.25l.43-.39c.41-.37.45-1 .08-1.41-.37-.42-1-.46-1.41-.09z"/></g></svg>