<?xml version="1.0" encoding="UTF-8"?>
<svg xmlns="http://www.w3.org/2000/svg" id="Filled" viewBox="0 0 512 512" width="512" height="512"><polygon points="200 72 224 56 224 24 288 24 288 56 312 72 312 152 200 152 200 72" style="fill:#f7cca9"/><path d="M440,488H72c0-184,64-216,64-216l-24-48L48,192S80,88,120,88s80-16,80-16,0,40,56,40,56-40,56-40,40,16,80,16,72,104,72,104l-64,32-24,48S440,304,440,488Z" style="fill:#ff9494"/><path d="M256,112s0,32-40,32c-27.53,0-43.69-37.89-51.09-61.52A257.032,257.032,0,0,0,200,72S200,112,256,112Z" style="fill:#ed6f6d"/><path d="M256,112s0,32,40,32c27.53,0,43.69-37.89,51.09-61.52A257.032,257.032,0,0,1,312,72S312,112,256,112Z" style="fill:#ed6f6d"/><path d="M48,192S24,264,24,304s80,144,80,144l81.018,33.758a16,16,0,0,0,21.01-8.827l4.8-12a16,16,0,0,0-6.917-19.834L160,416l3.229-9.688a16,16,0,0,0-9.236-19.915L128,376s-16-48-40-80l24-72Z" style="fill:#f7cca9"/><path d="M306.045,380.21,256,424l-50.045-43.79a24,24,0,0,1-5.663-28.795l2.431-4.862a24,24,0,0,1,36.459-8.007L256,352l16.818-13.454a24,24,0,0,1,36.459,8.007l2.431,4.862A24,24,0,0,1,306.045,380.21Z" style="fill:#ed6f6d"/><path d="M464,192s24,96,24,136-16,48-48,48-144-96-144-96H200a16,16,0,0,1-16-16V248a16,16,0,0,1,16-16h56l1.693-5.078a16,16,0,0,1,23.41-8.66L304,232s72,16,120,48l-24-56Z" style="fill:#f7cca9"/><path d="M312.109,457.315a7.992,7.992,0,0,0,9.206,6.576c2.136-.356,52.607-9.4,78.038-68.74a8,8,0,1,0-14.706-6.3c-21.85,50.983-64.16,58.944-65.99,59.265A8,8,0,0,0,312.109,457.315Z"/><path d="M471.761,190.06c-.014-.056-.035-.108-.05-.163-.023-.083-.039-.167-.065-.25a389.265,389.265,0,0,0-21.491-53.225C431.436,98.983,411.87,80,392,80c-35.092,0-70.855-13.075-76.3-15.146L296,51.719V24a8,8,0,0,0-8-8H224a8,8,0,0,0-8,8V51.719L196.3,64.854C190.845,66.929,155.087,80,120,80c-19.87,0-39.436,18.983-58.155,56.422a389.5,389.5,0,0,0-21.46,53.126C39.111,193.375,16,263.432,16,304c0,18.152,13.888,48.883,41.278,91.337,3.679,5.7,7.367,11.248,10.938,16.506A642.892,642.892,0,0,0,64,488a8,8,0,0,0,8,8H440a8,8,0,0,0,8-8c0-38.657-2.83-73.568-8.414-104H440c14.2,0,30.211-1.3,41.268-10.979C491.319,364.226,496,349.92,496,328,496,287.481,472.751,194.019,471.761,190.06Zm-72.319,52.945,7.6,17.73c-4.352-2.284-8.769-4.457-13.2-6.524ZM336.714,88.218C329.921,107.006,316.167,136,296,136c-20.141,0-27.609-9.314-30.376-16.41,25.937-2.242,39.237-13.441,45.93-23a47.751,47.751,0,0,0,6.669-13.849C322.954,84.324,329.291,86.29,336.714,88.218ZM228.437,62.656A8,8,0,0,0,232,56V32h48V56a8,8,0,0,0,3.562,6.656L303.443,75.91a32.017,32.017,0,0,1-5,11.5C290.741,98.419,276.46,104,256,104c-20.07,0-34.206-5.379-42.015-15.988a31.93,31.93,0,0,1-5.429-12.1ZM200.446,96.588c11.213,16.017,29.682,21.555,45.847,22.989a24.445,24.445,0,0,1-2.4,4.69C238.74,132.052,229.356,136,216,136c-20.167,0-33.921-28.994-40.714-47.782,7.423-1.928,13.76-3.894,18.491-5.479A47.751,47.751,0,0,0,200.446,96.588ZM76.238,143.414C91.551,112.838,107.092,96,120,96a206.963,206.963,0,0,0,39.566-4.184C176.726,141.333,199.544,152,216,152c21.584,0,33.462-8.194,40-17.165C262.538,143.806,274.416,152,296,152c16.456,0,39.274-10.667,56.434-60.184A206.963,206.963,0,0,0,392,96c12.908,0,28.449,16.838,43.762,47.414a378.018,378.018,0,0,1,18.471,44.525l-45.172,22.586c-.252-44.46-33.823-78.6-35.4-80.182a8,8,0,0,0-11.322,11.305c.367.37,36.336,37.135,29.945,79.9l-13.106,26.214a494.473,494.473,0,0,0-72.151-23.281L285.22,211.4A24,24,0,0,0,250.237,224H200a24.026,24.026,0,0,0-23.917,22.1,297.186,297.186,0,0,0-36.571,15.04L119.72,221.551c-6.391-42.768,29.578-79.533,29.945-79.9a8,8,0,0,0-11.322-11.305c-1.581,1.581-35.152,35.722-35.4,80.182L57.767,187.939A378.018,378.018,0,0,1,76.238,143.414Zm20.656,151.2,16.588-49.763,12.252,24.5c-6.046,4.852-15.361,14.181-24.989,30.9C99.487,298.344,98.205,296.459,96.894,294.616ZM32,304c0-30.167,14.541-80.444,20.791-100.661l5.6,2.8,43.821,21.911-21.8,65.417A8,8,0,0,0,81.6,300.8c22.917,30.556,38.655,77.263,38.811,77.731a8.006,8.006,0,0,0,4.618,4.9l25.992,10.4a8.009,8.009,0,0,1,4.619,9.958l-3.229,9.687a8,8,0,0,0,3.62,9.476l43.912,25.093a8.033,8.033,0,0,1,3.458,9.917l-4.8,12a8,8,0,0,1-10.5,4.414l-79.044-32.935C86.405,411.74,32,334,32,304ZM82.255,431.962c8.993,12.562,15.292,20.77,15.4,20.915a8,8,0,0,0,3.264,2.508L160,480H80.042C80.219,463.207,80.969,447.151,82.255,431.962ZM431.958,480H211.339a24.372,24.372,0,0,0,2.117-4.1l4.8-12a24.1,24.1,0,0,0-10.376-29.751l-38.217-21.839,1.154-3.466a24.023,24.023,0,0,0-13.854-29.873l-22.606-9.042A384.971,384.971,0,0,0,110.335,316.2c11.609-23.018,24.052-34.251,29.278-37.065a7.793,7.793,0,0,0,.768-.423A258.218,258.218,0,0,1,176,263.064V264a24.027,24.027,0,0,0,24,24h93.061c7.338,6.2,31.494,26.416,58.139,46.4,36.756,27.567,58.348,39.808,71.245,45.248C428.365,408.71,431.564,442.4,431.958,480Zm38.774-119.021C465.108,365.9,455.917,368,440,368c-5.208,0-23.347-4.517-79.139-46.354-31.433-23.571-59.376-47.481-59.655-47.72A8,8,0,0,0,296,272H200a8.009,8.009,0,0,1-8-8V248a8.009,8.009,0,0,1,8-8h56a8,8,0,0,0,7.589-5.47l1.693-5.077a8,8,0,0,1,11.706-4.331l22.9,13.738a8.027,8.027,0,0,0,2.381.95c.705.156,71.07,16.031,117.292,46.843h0c6.192,4.138,23.524,17.4,29.286,28.924a8,8,0,1,0,14.31-7.156c-7.5-14.993-26.451-29.253-32.708-33.688l-20.122-46.952,48.263-24.132C464.589,228.9,480,296.793,480,328,480,344.967,477.055,355.447,470.732,360.979Z"/><path d="M256,432a7.985,7.985,0,0,1-5.268-1.979l-48.473-42.414a34.7,34.7,0,0,1,44.533-53.218L256,341.755l9.208-7.366a34.7,34.7,0,0,1,44.533,53.218h0l-48.472,42.414A7.985,7.985,0,0,1,256,432Zm-30.858-89.221a18.844,18.844,0,0,0-4.042.44,18.705,18.705,0,0,0-8.305,32.347L256,413.37l43.2-37.8a18.705,18.705,0,0,0-24-28.683L261,358.247a8,8,0,0,1-10,0L236.8,346.883A18.616,18.616,0,0,0,225.142,342.779Z"/></svg>
