<svg id="Layer_1" enable-background="new 0 0 75 75" viewBox="0 0 75 75" xmlns="http://www.w3.org/2000/svg"><g id="Infertility"><path d="m40.3130531 5.8798194c-5.6531181-1.5582957-11.4887257 1.7548099-13.04883 7.4091792-.7529297 2.7319345-.3964844 5.593751 1.0029297 8.0585947v-.0004883c2.8887596 5.0880871 9.352602 6.8903065 14.4648457 3.9873047 2.4648438-1.3994141 4.2363281-3.6748047 4.9902344-6.4072266 1.5575408-5.6513919-1.7560769-11.4890713-7.4091798-13.0473637zm-11.6025409 7.8076167c1.7498703-6.3492231 9.5434513-8.8713322 14.666872-4.526062l-1.8682251 1.8688354c-2.2074432-1.6068611-5.6618004-1.5335417-7.2263794.9174805-.5556641.8701172-.7509766 1.8564453-.5898438 2.7998047-1.0143776-.0730782-2.1666203.8090134-2.2177753 2.4204111-.0262451.8277588.262146 1.8797607 1.026125 2.869873l-1.9575825 1.9575806c-.3613892-.4285278-.6890869-.8904419-.9718628-1.3884888 0 0 0 0 0-.0004883-1.2021485-2.1157226-1.5078125-4.5732421-.8613281-6.9189462zm5.3544941 5.8471689c-.0147705-.0147705-.0343628-.0199585-.0500488-.0332642-.7746582-.7892456-1.0606079-1.6453857-1.0397949-2.2855835.0298271-.9534473.618782-1.2740421 1.6132813-.6333008.6941147.4455795 1.4943428-.3971615 1.0166016-1.0668955-1.2930984-1.8067179.2677422-4.5578203 3.2597656-3.9946289 2.7317505.4816408 3.7928047 2.9388561 2.7695313 5.1743174-.9521484 1.9272461-2.5263672 3.4121094-4.109375 3.8740234-1.3759272.4014894-2.432152-.0068568-3.4599611-1.0346679zm12.2109375-1.0058593c-1.7572746 6.3760872-9.5670509 8.8544006-14.6691914 4.5246582l1.9512959-1.9512939c.8924599.7035522 1.7934532 1.1195068 2.9591064 1.1195068 2.7416115 0 5.199192-2.3057747 6.4716797-4.8818359.7828674-1.7078342.7283859-3.6844883-.4168091-5.2512827l1.8687744-1.8694458c1.9779015 2.3438233 2.6322785 5.4173717 1.8351441 8.3096933z"/><path d="m56.1236 33.3827477c1.1025391-.5732422 2.1962891-.644043 3.2480469-.2109375.3837891.15625.8203125-.0244141.9785156-.4086914.1582031-.3833008-.0253906-.8212872-.4082031-.979002-1.4599609-.5996094-3.0175781-.5068359-4.5078125.2661114-1.6416016.8457031-2.9277344 2.2685547-3.9335938 4.3535156-.9886246 2.0830231.1850357 4.7906036 2.4804688 5.4589844 2.0860634.6107597 4.0748749.6013107 6.0244141-.1933594 1.7246094-.6918945 2.7958984-1.9526367 3.1865234-3.7475586.0878906-.4047852-.1699219-.8041992-.5742188-.8920898-.4042969-.0874023-.8037109.1689453-.8925781.5737305-.28125 1.296875-1.0263672 2.1713867-2.2822266 2.675293-1.5566406.6328125-3.2060547.6801758-5.0410156.144043-1.4316406-.4168587-2.1285248-2.1495399-1.5478516-3.371582.8691407-1.8012697 1.9072266-2.9667971 3.2695313-3.6684572z"/><path d="m20.8833637 40.423275c-1.8339844.5356445-3.484375.4902344-5.0439453-.1464844-1.2519531-.5019531-1.9970703-1.3764648-2.2783203-2.6733398-.0888672-.4047852-.4863281-.6611328-.8925781-.5737305-.4042969.0878906-.6621094.4873047-.5742188.8920898.390625 1.7949219 1.4619141 3.0556641 3.1826172 3.7456055 1.9787064.8070793 3.9680653.7972755 6.0273438.1958008 2.296608-.6695862 3.4728737-3.3770714 2.4794922-5.4633789-1.0039063-2.0810547-2.2900391-3.5039063-3.9296875-4.3481445-1.4892578-.7744122-3.0488281-.8666973-4.5097656-.2675762-.3828125.1572266-.5664063.5952129-.4082031.9785137.15625.3833008.5927734.5673828.9785156.4091797 1.0517578-.4331055 2.1474609-.3623047 3.25.2124023 1.3603516.7001953 2.3984375 1.8657227 3.2666016 3.6635742.5881728 1.2363854-.1239835 2.9604569-1.5478517 3.3754883z"/><path d="m58.0122719 20.7518902c-1.8261719.684082-4.9560547 2.824707-6.4697266 3.8598633-.1816406.1289063-.4384766.0864258-.5859375-.0996094-.4609375-.5678711-1.1708984-1.3911133-1.9345703-2.0908203-.3066406-.2802734-.7802734-.2578125-1.0595703.046875-.2802734.3051758-.2587891.7797852.0458984 1.0595703.7333984.6713867 1.4326172 1.4970703 1.7802734 1.9248047.6386719.800293 1.7890625.9692383 2.6103516.3911133 1.3417969-.9179688 4.4833984-3.0668945 6.1396484-3.6870117 3.2034569-1.2030888 7.3524818-.9629021 8.8847618 2.1298828 1.5563202 3.1406174-.5858536 6.6338348-3.6914024 8.4277325-1.1310768.6649895-2.3812294 1.325428-3.5517578 1.9394531-.3710938.1855469-.5214844.6357422-.3359375 1.0063477.1866493.3719254.6377144.5195236 1.0058594.3354492 2.9622383-1.5768127 2.2835922-1.2091675 3.629879-1.9814453 3.8502426-2.2237568 6.1971359-6.539341 4.2871094-10.3930645-1.8908005-3.8173734-6.7759629-4.36512-10.754879-2.8691407z"/><path d="m14.0757465 35.9696617c.1220703.0771484.2607422.1152344.3994141.1152344.669137 0 1.0053148-.8174248.5234375-1.2866211-.1455078-.1425781-1.8378906-1.0200195-2.3105469-1.262207l.0029297-.0058594c-1.908247-1.0688591-3.7844963-2.0539207-5.0253906-4.5214825-1.5309944-3.0542183-.1325784-6.6811085 3.6025391-7.3764648 1.7138672-.3105469 3.4550781-.1347656 5.1796875.5234375 1.6914063.6420898 4.9365234 2.8666992 6.0029297 3.5976563.8603516.590332 2.0322266.3774414 2.6679688-.4829102.46875-.6342773 1.0683594-1.2333984 1.7822266-1.7807617.3291016-.2519531.3916016-.7226563.1396484-1.0512695-.2529297-.3276367-.7226563-.3925781-1.0517578-.1391602-.8261719.6328125-1.5244141 1.3325195-2.0771484 2.0805664-.1357422.1831055-.3886719.2895508-.6132813.1362305-1.9140625-1.3125-4.6523438-3.1303711-6.3164063-3.762207-1.9853516-.7558594-3.9970703-.9575195-5.9853516-.5966797-4.7353587.8814926-6.6436429 5.5936432-4.671875 9.5244141 1.7845354 3.5468348 4.7585201 4.601427 7.7509765 6.2880839z"/><path d="m41.5435219 68.8851929c.0986328-.5581055.2529297-1.1333008.4580078-1.7089844.1386719-.3901367-.0654297-.8193359-.4550781-.9580078-.3955078-.140625-.8203125.0654297-.9589844.4550781-.2324219.6542969-.4082031 1.3110352-.5205078 1.9511719-.0722656.4082031.2001953.796875.6083984.8691406.399952.0710983.7958641-.1940765.8681641-.6083984z"/><path d="m45.5493813 25.7006207c-.3955078-.1074219-.8115234.1303711-.9189453.5292969-.1074219.4003906.1298828.8115234.5302734.9189453 2.7679443.7438736 4.3643532 3.7504272 3.0507813 6.4340801l-3.6416016 7.3920898c-.8564453 1.3613281-1.2148438 2.996582-1.0087891 4.6049805.0488281.378418.3710938.6547852.7431641.6547852.0322266 0 .0634766-.0019531.0966797-.0058594.4101563-.0527344.7011719-.4287109.6484375-.8393555-.1621094-1.2641602.1181641-2.5483398.828125-3.6835938l3.6806641-7.4619141c1.735649-3.549425-.3396493-7.5575694-4.0087891-8.543455z"/><path d="m29.4331684 25.7055035c-1.9384766.5708008-3.5458984 1.9423828-4.2988281 3.6689453-.6826172 1.5673828-.6269531 3.2988262.1572266 4.8706036l3.7011719 7.5336914c1.0361328 1.6181641 1.1152344 3.6894531.2080078 5.4077148-.2014618.4037285-.9790802 1.7995148-1.2255859 2.6259766l-.0058594-.0024414c-1.5595932 4.3193359-.8828125 8.996582 1.8085938 12.5092773.7754822 1.0148048 2.8603497 2.9768333 3.508791 6.5688515.0654297.362793.3818359.6166992.7373047.6166992.474308 0 .8210564-.4279404.7392578-.8833008-.4199219-2.3203125-1.5263672-4.5703125-3.2148457-6.522953-2.7467175-2.9886894-3.7109375-7.5067902-2.1689453-11.7788086.0019531-.0048828.0039063-.0092773.0048828-.0141602.4876366-1.2865295.8780193-1.8641777 1.1435547-2.4204102 1.1591797-2.1928711 1.0546875-4.8422852-.2304688-6.8413086l-3.6621094-7.4638672c-1.3581638-2.726965.3579407-5.5925655 3.2216797-6.4360332.3974609-.1166992.625-.5336914.5078125-.9311523-.1171876-.3969727-.5332032-.628418-.9316407-.5073242z"/><path d="m45.8609047 34.419857c.8670807-1.8042374-.4064331-3.7668304-2.2802734-4.0278301-4.9189301-.6969795-7.7117081-.7723141-12.0908222-.0351563-1.9546452.3560982-3.4352455 2.1743374-2.5078125 4.0590801l3.2236347 6.5498047c1.3388672 2.190918 1.4189453 4.9677734.1982422 7.2636719l-.1279297.2563477c-.8741474 1.7247925-1.3808613 3.0629768-1.3808613 4.9790039 0 2.3655357.9120293 4.4980316 2.251955 5.9204102.4726563.5463867.9111328 1.1411133 1.3007813 1.7666016.2192917.3507195.6810913.4588966 1.0341797.2392578.3505859-.2192383.4580078-.6816406.2392578-1.0332031-.4331398-.6938019-1.0893745-1.5977173-1.8408203-2.4291992-.9716797-1.2685547-1.4853516-2.8120117-1.4853516-4.4638672 0-1.932003.5674019-2.9186478 1.3417969-4.5478516 1.4599609-2.7456055 1.3632813-6.0917969-.21875-8.6733398l-3.1904316-6.4897461c-.4654827-.944416.4906635-1.7500572 1.421875-1.9194317 4.2500019-.7172852 6.3671894-.7016602 11.6220722.0429688.8714867.121088 1.5594978 1.0147533 1.140625 1.885252l-3.1699219 6.4257811c-1.453125 2.4174805-1.6728516 5.4033203-.5888672 7.9863281.1601563.3818359.6005859.5629883.9814453.4013672.3818359-.1601563.5615234-.5996094.4013672-.9814453-.8994141-2.1445313-.7158203-4.6240234.5214844-6.6879883z"/><path d="m39.9546547 57.4843102c0 6.6001015 5.3691406 11.9692421 11.96875 11.9692421s11.96875-5.3691406 11.96875-11.9692421c0-6.5996094-5.3691406-11.96875-11.96875-11.96875s-11.96875 5.3691406-11.96875 11.96875zm11.96875-10.46875c5.7724609 0 10.46875 4.6962891 10.46875 10.46875 0 5.7729492-4.6962891 10.4692421-10.46875 10.4692421s-10.46875-4.6962929-10.46875-10.4692421c0-5.772461 4.6962891-10.46875 10.46875-10.46875z"/><path d="m46.0103188 58.2748375c.691143.259182 1.0430832.9583473.9150391 1.6289063-.0882378.4593887.2623138.890625.7373047.890625.3525391 0 .6669922-.25.7353516-.609375.3015671-1.5753441-.7300148-2.986248-1.9023438-3.3310547-.7963104-.3274612-1.1351204-1.284153-.7089844-2.0415039.203125-.3608398.0761719-.8183594-.2851563-1.0214844-.3613281-.2036133-.8183594-.074707-1.0214844.2851563-.8849296 1.569107-.1582794 3.5642471 1.5302735 4.1987304z"/><path d="m51.0835609 55.9862633c.4072266-.0771484.6748047-.4697266.5976563-.8769531-.1283646-.6722183.2245941-1.370842.9140625-1.6293945 1.6912918-.6352615 2.4140244-2.6319275 1.53125-4.1982422-.203125-.3598633-.6582031-.4887695-1.0214844-.2861328-.3603516.203125-.4882813.6606445-.2851563 1.0214844.4178848.7436829.1100616 1.726387-.7587891 2.0585938-1.3427734.5068359-2.1220703 1.9003906-1.8535156 3.3139648.0755196.4027861.4648782.6737632.8759766.5966796z"/><path d="m50.4194984 65.586853c.2832031 0 .5556641-.1621094.6816406-.4375.2848625-.6202545.9730644-.9860229 1.6894531-.7963867 1.7414474.460968 3.4898376-.7387352 3.6826172-2.5332069.0439453-.4116211-.2548828-.78125-.6660156-.8251953-.4189453-.0483398-.7832031.2543945-.8261719.6660156-.0883789.8415337-.9101219 1.4768906-1.8115234 1.2382813-1.3916016-.3686523-2.8320313.3168945-3.4316406 1.6254921-.2296524.5001678.1402588 1.0624999.6816406 1.0624999z"/><path d="m57.4468422 59.1737633c1.9052734-.5146484 3.0644531-1.7197266 2.7548828-2.8642578-.5162277-1.9177818-4.2056541-1.4931984-5.8349609-.0703125-1.8625985 1.6284713-.2847519 3.8460159 3.0800781 2.9345703zm-.6767578-2.5029297c1.1396217-.3071289 1.8876953-.0830078 1.9804688.0004883-.0224609.1757813-.5585938.7475586-1.6953125 1.0541992-1.0712891.2915039-1.8046875.1074219-1.9707031-.0327148.0732421-.2045899.6123046-.7314454 1.6855468-1.0219727z"/></g></svg>