<svg id="&#x421;&#x43B;&#x43E;&#x439;_1" enable-background="new 0 0 160 160" viewBox="0 0 160 160" xmlns="http://www.w3.org/2000/svg"><g fill="rgb(0,0,0)"><path d="m99 17c-24.262 0-44 19.738-44 44 0 6.618 1.433 12.98 4.26 18.911.476.998 1.67 1.42 2.666.945.997-.475 1.42-1.669.945-2.666-2.569-5.389-3.871-11.172-3.871-17.19 0-22.056 17.944-40 40-40s40 17.944 40 40-17.944 40-40 40c-1.923 0-3.855-.138-5.743-.409-1.095-.157-2.107.602-2.264 1.695s.602 2.107 1.695 2.264c2.076.298 4.2.45 6.312.45 24.262 0 44-19.738 44-44s-19.738-44-44-44z"/><path d="m18 144 .864.005c.291.002.593.005.904.005 3.867 0 9.139-.385 12.019-6.111 1.573-3.127 1.251-6.354.941-9.475-.404-4.062-.753-7.569 2.687-11.009 3.876-3.876 7.508-3.717 11.717-3.534 3.689.162 7.822.332 12.031-2.476 1.036 1.025 2.407 1.592 3.866 1.592 1.468 0 2.849-.572 3.886-1.61l4.212-4.211c5.152 1.907 10.426.784 14.333-3.125 1.811-1.811 4.024-5.1 5.942-8.895 2.485.551 5.031.844 7.598.844 19.299 0 35-15.701 35-35s-15.701-35-35-35-35 15.701-35 35c0 6.321 1.692 12.434 4.886 17.819-2.025 1.252-3.756 2.54-4.937 3.721-3.908 3.908-5.031 9.182-3.125 14.334l-4.211 4.211c-1.039 1.038-1.61 2.418-1.61 3.887 0 1.302.472 2.52 1.297 3.506-2.9 1.666-5.764 1.547-8.995 1.406-4.5-.197-9.6-.419-14.72 4.702-4.78 4.78-4.258 10.021-3.839 14.233.277 2.787.517 5.193-.534 7.282-1.855 3.688-4.895 3.94-9.316 3.903l-.896-.004c-1.104 0-2 .896-2 2s.896 2 2 2zm50-83c0-17.093 13.907-31 31-31s31 13.907 31 31-13.907 31-31 31c-1.985 0-3.956-.196-5.888-.567 2.767-6.698 4.099-13.956.755-17.3-3.406-3.407-10.291-1.851-15.467.055-2.028.747-4.088 1.666-6.029 2.666-2.856-4.786-4.371-10.226-4.371-15.854zm-8.558 42.914 3.318-3.318c.529.754 1.219 1.615 2.124 2.521.391.391.902.585 1.414.585s1.024-.195 1.414-.585c.781-.781.781-2.047 0-2.829-1.938-1.938-2.636-3.62-2.659-3.676-.012-.029-.03-.054-.042-.083-.007-.016-.007-.033-.014-.048-1.907-4.023-1.258-8.074 1.781-11.113 2.421-2.42 7.89-5.544 13.005-7.427 3.591-1.322 6.29-1.812 8.176-1.812 1.583 0 2.594.345 3.081.831 3.32 3.321-3.414 19.268-8.407 24.261-3.039 3.039-7.089 3.689-11.113 1.782-.764-.362-1.673-.205-2.271.393l-5.162 5.162c-.565.565-1.551.564-2.116 0l-2.528-2.528c-.283-.283-.438-.658-.438-1.058-.002-.4.154-.776.437-1.058z"/><path d="m22.857 98.551c-2.402.768-5.391 1.724-6.755 5.816-.349 1.048.217 2.18 1.265 2.53.21.07.424.103.633.103.837 0 1.618-.53 1.897-1.368.691-2.074 1.844-2.524 4.178-3.271 2.25-.719 5.049-1.615 7.099-4.936 2.112-3.42 1.952-6.269 1.823-8.558-.075-1.34-.14-2.497.21-3.671.193-.645.996-1.401 1.81-1.986.623.573 1.269 1.125 1.961 1.633.103.075.212.141.326.195 1.323.627 2.692.934 4.032.934 2.287 0 4.486-.896 6.213-2.623 1.786-1.786 3.86-5.363 5.164-8.902 1.216-3.305 2.177-7.734-.155-10.065-2.331-2.332-6.76-1.371-10.065-.154-3.539 1.303-7.117 3.377-8.902 5.163-2.739 2.739-3.386 6.665-1.688 10.245.053.112.116.218.189.318.07.097.15.186.222.281-1.155.89-2.454 2.194-2.939 3.818-.55 1.844-.455 3.541-.371 5.038.117 2.083.218 3.883-1.233 6.232-1.273 2.064-2.96 2.604-4.914 3.228zm13.562-26.331c1.175-1.175 4.113-3.007 7.456-4.238 3.662-1.348 5.525-1.101 5.855-.771s.576 2.196-.771 5.855c-1.23 3.343-3.063 6.281-4.238 7.456-1.512 1.513-3.52 1.866-5.536.979-1.443-1.082-2.701-2.339-3.742-3.74-.889-2.017-.537-4.028.976-5.541z"/><path d="m84.47 126.07c-2.178-.097-4.648-.205-6.679 1.336-3.419 2.596-3.641 5.525-3.802 7.664-.087 1.159-.157 2.075-.653 2.82-.525.788-2.437 2.11-9.336 2.11-1.104 0-2 .896-2 2s.896 2 2 2c4.323 0 10.339-.403 12.664-3.891 1.079-1.618 1.204-3.275 1.314-4.738.143-1.899.247-3.271 2.231-4.778.881-.668 2.365-.603 4.085-.527 2.428.107 5.615.238 8.41-1.952.335.278.673.555 1.027.815.103.075.211.14.326.194 1.27.602 2.584.897 3.87.897 2.196 0 4.309-.86 5.967-2.519 2.943-2.943 8.817-14.077 4.752-18.142-4.066-4.065-15.199 1.81-18.142 4.752-2.63 2.63-3.252 6.399-1.622 9.837.053.111.116.218.188.318.242.333.503.652.765.97-1.555.988-3.351.923-5.365.834zm8.863-9.129c3.053-3.053 11.33-5.907 12.485-4.752s-1.7 9.432-4.752 12.484c-1.401 1.401-3.263 1.729-5.129.912-1.355-1.017-2.535-2.196-3.514-3.512-.819-1.868-.492-3.73.91-5.132z"/><path d="m89 62.5c0 1.736.676 3.369 1.904 4.596 1.227 1.228 2.859 1.904 4.596 1.904s3.369-.676 4.596-1.904l3.904-3.904 3.904 3.903c1.227 1.229 2.859 1.905 4.596 1.905s3.369-.676 4.596-1.903c1.228-1.228 1.904-2.86 1.904-4.597s-.676-3.369-1.904-4.596l-3.904-3.904 3.903-3.903c1.228-1.228 1.904-2.86 1.904-4.597s-.676-3.369-1.904-4.596c-1.226-1.228-2.858-1.904-4.595-1.904s-3.369.676-4.596 1.904l-3.904 3.904-3.904-3.903c-1.227-1.229-2.859-1.905-4.596-1.905s-3.369.676-4.596 1.903c-1.228 1.228-1.904 2.861-1.904 4.597s.676 3.369 1.904 4.596l3.904 3.904-3.903 3.903c-1.229 1.228-1.905 2.861-1.905 4.597zm4.732-1.768 5.318-5.318c.781-.781.781-2.047 0-2.828l-5.318-5.318c-.472-.473-.732-1.1-.732-1.768s.26-1.295.733-1.769c.943-.943 2.59-.943 3.535 0l5.318 5.318c.78.781 2.048.781 2.828 0l5.319-5.319c.943-.943 2.59-.944 3.535.001.472.472.732 1.1.732 1.768s-.26 1.295-.732 1.768l-5.318 5.318c-.781.781-.781 2.047 0 2.828l5.318 5.318c.472.472.732 1.1.732 1.768s-.26 1.295-.733 1.769c-.943.943-2.59.944-3.535 0l-5.318-5.318c-.39-.391-.902-.586-1.414-.586s-1.024.195-1.414.586l-5.319 5.319c-.943.943-2.59.944-3.535-.001-.472-.473-.732-1.1-.732-1.768s.26-1.295.732-1.768z"/></g></svg>