<svg id="Capa_1" enable-background="new 0 0 511.948 511.948" height="512" viewBox="0 0 511.948 511.948" width="512" xmlns="http://www.w3.org/2000/svg"><g><path d="m510.527 462.42-5.37-20.363c-4.337-16.446-18.259-27.933-33.856-27.933h-152.235l-6.414-37.708h154.142c16.592 0 30.09-13.498 30.09-30.09 0-16.586-13.498-30.08-30.09-30.08h-82.775c-4.142 0-7.5 3.358-7.5 7.5s3.358 7.5 7.5 7.5h82.775c8.321 0 15.09 6.765 15.09 15.08 0 8.32-6.769 15.09-15.09 15.09h-156.693l-5.131-30.17h48.744c4.142 0 7.5-3.358 7.5-7.5s-3.358-7.5-7.5-7.5h-51.295l-16.571-97.427c-3.177-18.671 25.531-20.865 41.408-4.794 5.798 5.875 12.215 10.856 19.099 14.879v32.563c0 13.564 11.264 24.6 25.11 24.6h40.07c13.846 0 25.11-11.035 25.11-24.6v-32.808c52.742-29.857 59.869-100.678 18.628-141.898-24.403-24.391-58.98-31.962-89.819-22.741l-56.026-56.027c-10.657-10.657-27.9-10.658-38.557 0l-23.51 23.51c-10.629 10.63-10.629 27.926 0 38.557l28.442 28.442c-10.615 1.071-20.97 3.561-30.955 7.442-19.888-44.598-63.226-73.559-110.898-75.667-70.878-3.825-133.946 53.517-133.946 127.819 0 28.724 9.609 56.753 27.799 79.647v.001c.938.834 34.628 48.322 100.171 48.322 2.688 0 5.355-.093 8.002-.258 2.293 18.688 13.337 35.468 29.708 44.927v83.527c-14.376 1.344-26.842 12.394-30.902 27.794l-5.37 20.363c-6.536 24.784 10.357 49.527 33.856 49.527h69.788c4.142 0 7.5-3.358 7.5-7.5s-3.358-7.5-7.5-7.5h-69.788c-14.099 0-23.218-16.04-19.352-30.703l5.37-20.363c2.602-9.866 10.56-16.757 19.352-16.757h4.517c.01 0 .019.001.029.001s.019-.001.029-.001h139.458c.018 0 .036.002.055.002s.039-.002.058-.002h158.518c8.792 0 16.75 6.891 19.352 16.757l5.37 20.363c3.874 14.693-5.325 30.703-19.352 30.703h-213.687c-4.142 0-7.5 3.358-7.5 7.5s3.358 7.5 7.5 7.5h213.686c23.528.002 40.384-24.771 33.856-49.526zm-98.993-191.354h-40.07c-5.575 0-10.11-4.306-10.11-9.6v-25.602c19.969 7.071 41.193 6.451 60.29-.355v25.958c0 5.293-4.535 9.599-10.11 9.599zm-73.604-67.581c-.082-.083-.17-.16-.253-.243h107.802c-28.056 28.172-76.038 32.173-107.549.243zm-79.963-161.376 23.51-23.51c4.795-4.795 12.548-4.795 17.343 0l51.509 51.508c-10.997 5.641-20.855 13.581-28.944 23.539-6.806 5.29-13.014 4.239-24.985 4.239l-38.433-38.433c-4.781-4.781-4.781-12.561 0-17.343zm29.947 70.777h21.02c8.271 0 16.295-2.895 22.595-8.151 1.691-1.41 21.963-30.402 61.753-29.471 56.801 1.305 92.031 63.742 63.678 112.978-150.235 0-148.715-.159-150.299.282-24.347-2.542-38.775 14.135-35.6 32.809l25.338 148.971c.009.049.015.099.025.148l7.428 43.672h-123.168v-77.253c37.568 9.763 75.26-18.585 75.26-58.305 0-18.524-8.653-36.005-23.018-47.338 22.721-32.509 28.96-73.493 17.217-111.25 12.057-4.704 24.731-7.092 37.771-7.092zm-150.785-67.372c6.016.471 11.716 1.405 17.37 2.766-24.081 23.397-7.674 64.607 26.18 64.607 16.132 0 30.292-10.238 35.544-25.292 3.56 4.455 6.86 9.255 9.859 14.502-9.464 16.076-26.529 25.91-45.403 25.91-29.081 0-52.74-23.659-52.74-52.74 0-10.777 3.166-20.987 9.19-29.753zm43.551 52.373c-12.473 0-22.62-10.147-22.62-22.62 0-9.359 5.787-17.69 14.336-21.038 11.593 4.944 22.031 11.749 30.865 19.662.38 5.71-9.351 23.996-22.581 23.996zm-142.441 125.498c-.143.514-.458 1.408-1.021 1.977-1.025-1.384-1.943-2.679-2.962-4.188 2.01-16.824 15.718-29.57 31.155-28.661.326.02.653.018.978-.006 9.169-.655 11.438-8.764 12.658-13.12.476-1.704.275-13.271 10.462-21.351 10.463-8.282 27.921-8.492 35.138 2.544 10.792 16.505-6.005 51.048-29.475 43.419-3.594-1.162-7.577-.793-10.945 1.019-7.205 3.895-15.093 4.77-23.455 2.596-9.263-2.392-19.365 4.66-22.533 15.771zm8.692 13.379c2.636-2.306 4.679-5.479 5.746-9.311 1.001-3.51 3.541-5.309 4.33-5.317 11.839 3.078 23.586 1.786 33.986-3.724 11.409 3.54 23.966 1.088 33.678-6.606 26.57-21.036 25.344-68.335-11.007-74.243-11.665-1.895-24.176 1.361-33.471 8.717-15.012 11.907-15.322 28.44-16.22 31.188-16.995 0-32.024 10.359-39.662 25.541-30.918-71.417 18.228-152.06 95.527-157.587-4.538 9.197-6.9 19.31-6.9 29.846 0 37.352 30.388 67.74 67.74 67.74 20.936 0 40.136-9.423 52.814-25.291 28.2 73.866-26.453 153.35-105.52 153.35-30.326-.001-59.425-12.066-81.041-34.303zm155.748 55.166c-11.976 6.139-25.026-4.956-21.462-17.48 6.471-2.973 12.655-6.467 18.494-10.434 13.206 3.552 15.187 21.65 2.968 27.914zm-51.814-7.918c5.053-.916 10.003-2.13 14.832-3.623 1.323 21.541 24.32 34.888 43.825 24.889 20.772-10.649 21.493-38.983 3.328-51.5 3.803-3.377 7.402-6.976 10.781-10.777 24.36 19.197 22.878 56.91-3.7 73.708-28.652 18.108-65.082-.278-69.066-32.697z"/><path d="m265.447 465.983v-12c0-4.142-3.358-7.5-7.5-7.5s-7.5 3.358-7.5 7.5v12c0 4.142 3.358 7.5 7.5 7.5s7.5-3.358 7.5-7.5z"/><path d="m323.542 481.288c8.795 0 17.16-3.809 22.948-10.451 2.721-3.123 2.396-7.86-.727-10.582-3.123-2.721-7.861-2.396-10.582.727-6.163 7.072-17.116 7.072-23.279 0-2.722-3.123-7.459-3.447-10.582-.727-3.122 2.722-3.448 7.459-.727 10.582 5.789 6.642 14.153 10.451 22.949 10.451z"/><path d="m385.048 465.648c0-3.532 2.874-6.406 6.406-6.406s6.406 2.874 6.406 6.406c0 4.142 3.358 7.5 7.5 7.5 14.13 0 7.46-28.906-13.906-28.906-11.803 0-21.406 9.603-21.406 21.406 0 4.142 3.358 7.5 7.5 7.5s7.5-3.358 7.5-7.5z"/></g></svg>