<svg id="Layer_1" enable-background="new 0 0 75 75" viewBox="0 0 75 75" xmlns="http://www.w3.org/2000/svg"><g id="Appointment_Booking"><path d="m61.0080452 64.6401367v-16.2841797c0-.4140625-.3359375-.75-.75-.75s-.75.3359375-.75.75v16.2841797c0 2.1669922-1.7626953 3.9296875-3.9291992 3.9296875h-26.897461c-2.1645508 0-3.925293-1.7607422-3.925293-3.9257813v-5.8056641c0-.4140625-.3359375-.75-.75-.75s-.75.3359375-.75.75v5.8056641c0 2.9921875 2.4335938 5.4257813 5.425293 5.4257813h26.897461c2.9936523 0 5.4291992-2.4355469 5.4291992-5.4296875z"/><path d="m60.2580452 29.2915039c.4140625 0 .75-.3359375.75-.75v-18.1865234c0-2.9912109-2.4335938-5.4248047-5.425293-5.4248047h-26.9013672c-2.9916992 0-5.425293 2.4335938-5.425293 5.4248047v3.5322266c0 .4140625.3359375.75.75.75s.75-.3359375.75-.75v-3.5322266c0-2.1640625 1.7607422-3.9248047 3.925293-3.9248047h26.9013672c2.1645508 0 3.925293 1.7607422 3.925293 3.9248047v18.1865234c0 .4140625.3359375.75.75.75z"/><path d="m49.1877327 12.1118164c0-1.4755859-1.2006836-2.6767578-2.6811523-2.6767578l-7.2543945.0478516c-1.4755859 0-2.6757813 1.2001953-2.6757813 2.6757813s1.2001953 2.6767578 2.6806641 2.6767578l7.2543945-.0478516c1.4755859 0 2.6762695-1.2001954 2.6762695-2.6757813zm-9.9355469 1.2236328c-.6484375 0-1.1757813-.5283203-1.1757813-1.1767578s.5273438-1.1757813 1.1806641-1.1757813l7.2543945-.0478516c.6484375 0 1.1762695.5283203 1.1762695 1.1767578s-.527832 1.1757813-1.1811523 1.1757813z"/><path d="m11.0905657 56.090332h18.5537109c.4140625 0 .75-.3359375.75-.75s-.3359375-.75-.75-.75h-18.5537109c-1.112793 0-2.0185547-.9052734-2.0185547-2.0175781v-21.4462891h31.7739258v18.6337891c0 .4140625.3359375.75.75.75s.75-.3359375.75-.75v-25.0859375c0-1.9404297-1.578125-3.5185547-3.5180664-3.5185547h-.8574219c-.4140625 0-.75.3359375-.75.75s.3359375.75.75.75h.8574219c1.112793 0 2.0180664.9052734 2.0180664 2.0185547v4.9521484h-31.7739258v-4.9521484c0-1.1132813.9057617-2.0185547 2.0185547-2.0185547.4140625 0 .75-.3359375.75-.75s-.3359375-.75-.75-.75c-1.9399414 0-3.5185547 1.578125-3.5185547 3.5185547v27.8984375c0 1.9394531 1.5786133 3.5175781 3.5185547 3.5175781z"/><path d="m21.5925179 22.6557617h6.8652344c.4140625 0 .75-.3359375.75-.75s-.3359375-.75-.75-.75h-6.8652344c-.4140625 0-.75.3359375-.75.75s.3359375.75.75.75z"/><path d="m16.2394905 16.7348633h-.2280273c-1.4370108 0-2.6064444 1.1689453-2.6064444 2.6064453v4.1816406c0 1.4375 1.1694336 2.6064453 2.6064444 2.6064453h.2280273c1.4370117 0 2.6064453-1.1689453 2.6064453-2.6064453v-4.1816406c0-1.4375-1.1694336-2.6064453-2.6064453-2.6064453zm1.1064453 6.7880859c0 .6103516-.496582 1.1064453-1.1064453 1.1064453h-.2280273c-.6098623 0-1.1064444-.4960938-1.1064444-1.1064453v-4.1816406c0-.6103516.496582-1.1064453 1.1064444-1.1064453h.2280273c.6098633 0 1.1064453.4960938 1.1064453 1.1064453z"/><path d="m33.5178108 16.7348633c-1.4370117 0-2.6064453 1.1689453-2.6064453 2.6064453v4.1816406c0 1.4375 1.1694336 2.6064453 2.6064453 2.6064453h.2280273c1.4370117 0 2.6064453-1.1689453 2.6064453-2.6064453v-4.1816406c0-1.4375-1.1694336-2.6064453-2.6064453-2.6064453zm1.3344727 2.6064453v4.1816406c0 .6103516-.496582 1.1064453-1.1064453 1.1064453h-.2280273c-.6098633 0-1.1064453-.4960938-1.1064453-1.1064453v-4.1816406c-.0000001-1.480257 2.4409179-1.4818802 2.4409179 0z"/><path d="m21.235096 36.3745117c0-.9648438-.7851563-1.75-1.75-1.75h-3.2211914c-.9648428 0-1.749999.7851563-1.749999 1.75v3.2207031c0 .9648438.7851563 1.75 1.749999 1.75h3.2211914c.9648438 0 1.75-.7851563 1.75-1.75zm-1.5 3.2207031c0 .1376953-.1123047.25-.25.25h-3.2211914c-.1376953 0-.25-.1123047-.25-.25v-3.2207031c0-.1376953.1123047-.25.25-.25h3.2211914c.1376953 0 .25.1123047.25.25z"/><path d="m30.4333382 41.3452148h3.2207031c.9648438 0 1.75-.7851563 1.75-1.75v-3.2207031c0-.9648438-.7851563-1.75-1.75-1.75h-3.2207031c-.9648438 0-1.75.7851563-1.75 1.75v3.2207031c0 .9648438.7851562 1.75 1.75 1.75zm-.25-4.9707031c0-.1376953.1123047-.25.25-.25h3.2207031c.1376953 0 .25.1123047.25.25v3.2207031c0 .1376953-.1123047.25-.25.25h-3.2207031c-.1376953 0-.25-.1123047-.25-.25z"/><path d="m19.485096 44.2456055h-3.2211914c-.9648428 0-1.749999.7851563-1.749999 1.75v3.2207031c0 .9648438.7851563 1.75 1.749999 1.75h3.2211914c.9648438 0 1.75-.7851563 1.75-1.75v-3.2207031c0-.9648438-.7851563-1.75-1.75-1.75zm.25 4.9707031c0 .1376953-.1123047.25-.25.25h-3.2211914c-.1376953 0-.25-.1123047-.25-.25v-3.2207031c0-.1376953.1123047-.25.25-.25h3.2211914c.1376953 0 .25.1123047.25.25z"/><path d="m30.4333382 45.7456055h3.2207031c.1376953 0 .25.1123047.25.25v1.6103516c0 .4140625.3359375.75.75.75s.75-.3359375.75-.75v-1.6103516c0-.9648438-.7851563-1.75-1.75-1.75h-3.2207031c-.9648438 0-1.75.7851563-1.75 1.75v3.2207031c0 1.7986259 2.5 2.3458748 2.5 1 0-.4140625-.3359375-.75-.75-.75-.1376953 0-.25-.1123047-.25-.25v-3.2207031c0-.1376953.1123047-.25.25-.25z"/><path d="m34.5417366 58.5239258 1.2011719-.765625 2.4301758 3.7333984c.3574295.5488548 1.0779648.7188835 1.6469727.3808594l2.2421875-1.3427734c.6264992-.3704872.7740059-1.1991348.3696289-1.7519531l-2.5932617-3.7109375.9648438-.6337891c.8028641-.5295944.7024651-1.7283211-.1601563-2.125l-6.9194336-3.1845703c-.8498116-.3943291-1.8100624.2848816-1.7236328 1.21875l.6743164 7.2675781c.0851897.905899 1.0975722 1.4027748 1.8671874.9140625zm5.0131836-5.0654297-.7836914.515625c-.5832329.3847084-.717865 1.1844521-.3217773 1.7236328l2.5854492 3.6992188-1.7524414 1.0488281-2.4345703-3.7402344c-.2329102-.3564453-.625-.5507813-1.0244141-.5507813-.5657196 0-.7961578.3321419-1.6982422.8554688l-.5864258-6.3203125z"/><path d="m67.4279709 38.6547852c.0093231-3.9492111-3.0895462-7.0605469-7.0400429-7.0605469-3.8530273 0-7.0102539 3.1074219-7.0493164 6.9521484-.0389977 3.851841 3.0448074 7.1054688 7.0249023 7.1054688 3.9287606 0 7.055378-3.0952034 7.064457-6.9970703zm-7.1230507 5.4970703c-3.0632401-.0283813-5.497509-2.5381279-5.4663086-5.5898438.0297928-2.9290047 2.4038391-5.4677734 5.5917969-5.4677734 3.090332.0234375 5.5048866 2.4638672 5.4975624 5.5566406-.0068512 2.9773407-2.3444939 5.5009766-5.6230507 5.5009766z"/><path d="m62.7224007 36.1694336-3.5053711 3.3974609-1.1586914-1.1875c-.2890625-.296875-.7636719-.3007813-1.0605469-.0136719-.2963867.2890625-.3022461.7646484-.0126953 1.0605469l1.6806641 1.7226563c.2887001.2973289.7628288.3014641 1.0585938.015625l4.0419922-3.9169922c.2973671-.2890625.3046913-.7636719.0166016-1.0605469-.2885744-.2998047-.7641603-.3046875-1.060547-.0175781z"/></g></svg>