<svg id="Layer_1" enable-background="new 0 0 75 75" viewBox="0 0 75 75" xmlns="http://www.w3.org/2000/svg"><g id="Embryo_Transfer"><path d="m11.5522938 23.0968685c.0206909.0172119.0462646.0222168.0681763.0368042-.4024487.6693153-.8224821 1.3586979-.8630981 2.1516724-.0419922.8046875.3642578 1.5566406 1.0112305 1.8701172.3775253.1817722.82304.0219383 1.0024414-.3476563.1806641-.3720703.0253906-.8212891-.347168-1.0019531-.090332-.0439453-.1796875-.2314453-.168457-.4433594.0319118-.622757.9980993-2.0440159 1.3657227-2.546875.2446289-.3339844.5131836-.6621094.8188477-.7998047.3652344-.1582031.8813477-.0175781 1.1074219.3095703.2353516.3398438.7026367.4248047 1.043457.1904297.340332-.2363281.4257813-.703125.1899414-1.0439453-.6347656-.9179688-1.9326172-1.2783203-2.953125-.8251953-.6074219.2719727-1.0245361.7539673-1.3833618 1.2400513-1.4154053-1.1838379-2.8710938-2.4093628-3.9882202-3.8396606-1.0512781-1.3457031-2.2158198-3.4306641-1.79248-5.7255859.1147461-.6210938.3691406-1.1796875.7353516-1.6152344 1.2514644-1.4873047 3.014648-1.3525391 5.4516597-.6591797 2.5024414.7148438 4.7709961 1.5185547 6.8237305 2.4228516-.0302734.2451172-.0395508.4941406-.0268555.7441406.1245117 2.4677734.9790039 7.2578125 5.296875 11.6025391 1.1776543 1.1854095 1.646347 2.737402 1.1035156 4.7802734-.4998798 1.8867931-.2353058 3.860323.5786133 5.6513653 1.3958035 3.0713348.8793354 2.5428391 3.6245117 12.7880859.1899414.7412109.7875977 1.3125 1.5595703 1.4902344.1135807.0218735.3699665.0986328.6762714.0986328 1.1232109 0 2.0544853-.8580475 2.1132813-1.9501953.269043-5.0166016-.8525391-10.0263672-3.2890644-14.5722656-.2319336-.4296875-.4506836-.8359375-.4765625-1.2138653-.0166016-.2451172.1015625-.546875.3032227-.6064453.3772926-.1113644 1.0974102.3693066 1.9130878.40625 1.2626953.0927734 2.2553711-.9140625 2.5830078-1.9042969.3173828-.9580078.1508789-1.9384766-.0532227-2.7705078-.5551758-2.2578125-1.4462891-4.2792969-2.6489258-6.0087891-2.7065449-3.8945313-6.4296894-6.9541016-11.4516621-9.3574219.206543-.3847656.503418-.7294922.8803711-1.0126953 3.7070313-2.7792969 13.7490253-8.3271484 26.9194241.1230469.4218864.2705078.7622185.6289063 1.0004997 1.0351563-4.8710938 2.3808594-8.5 5.3955078-11.1518555 9.2119141-1.203125 1.7304688-2.0942383 3.7519531-2.6494141 6.0087891-.2045898.8330078-.3706055 1.8125-.0527344 2.7695313.328125.9912109 1.3325195 1.9677734 2.5830078 1.9052734.823288-.0372887 1.5380287-.5203323 1.9125977-.40625.2021484.0595703.3203125.3613281.3037109.6064453-.0258789.3779278-.2446289.7841778-.5214844 1.2978497-2.3867188 4.4521484-3.5092773 9.453125-3.2456055 14.4609375.0687523 1.2875977 1.3311996 2.2078781 2.6420898 1.8867188.7543945-.1875 1.3383789-.7558594 1.5249023-1.484375 2.735424-10.2081871 2.2272263-9.7190781 3.6279297-12.8017578.1899414-.4169922.3569336-.8710938.4960938-1.3505859.4179688-1.4404297.4462891-2.9277325.0825195-4.3007793-.4805946-1.8118896-.2235184-3.4432907 1.1015625-4.7792969 4.2290039-4.2607422 5.0913086-8.9638672 5.2290039-11.3876953.015625-.2832031.0024414-.5664063-.0390625-.84375 2.121582-.9521484 4.4760742-1.7939453 7.0849609-2.5380859 2.4389648-.6953125 4.2006836-.8291016 5.4526329.6582031.3662109.4355469.6206055.9941406.7348633 1.6152344.4233398 2.2958984-.7407227 4.3808594-1.7919884 5.7255859-1.1001587 1.4088135-2.5310059 2.6190796-3.9276123 3.7880249-.4350357-.619566-.8632469-1.2140446-1.5933838-1.5409546-1.0185547-.4541016-2.3168945-.0927734-2.9526367.8251953-.2358398.3408203-.1508789.8076172.1899414 1.0429688.3398438.2373047.8081055.1523438 1.043457-.1894531.2265625-.3271484.7451172-.4726563 1.1069336-.3095703.5995636.2677479 1.5130196 1.8108826 1.8261719 2.3818359.1650391.3017578.3427734.6503906.359375.9648438.0107422.2109375-.0786133.3994141-.1689453.4433594-.7137299.3461075-.4652367 1.4248047.328125 1.4248047.5821495 0 1.3962898-.8173714 1.3388672-1.9453125-.0362434-.6965523-.3503876-1.2632122-.6694336-1.8237915 1.5345459-1.2807922 3.0543671-2.5430679 4.3007774-4.1381226 2.9281616-3.7474957 2.5849762-7.3745022 1.0229492-9.2294922-2.1274376-2.5292969-5.3041954-1.6230469-7.0117149-1.1357422-2.6235352.7480469-5.0014648 1.5947266-7.1538086 2.5517578-.3583984-.6582031-.8876953-1.234375-1.5532227-1.6611328-13.9628905-8.960938-24.6733416-3.0292973-28.6293963-.0605473-.5761719.4316406-1.03125.9785156-1.3422852 1.5908203-2.0737305-.9033203-4.3525391-1.7070313-6.8554688-2.421875-1.7065429-.4853515-4.8823241-1.3935547-7.0112299 1.1367188-1.5620551 1.8550291-1.9056106 5.4829636 1.0229492 9.2294922 1.233398 1.5791015 2.7812495 2.8740234 4.2778316 4.1259765zm34.3168964.6640625c-1.7141151 1.726862-2.1013641 3.9060364-1.4873047 6.2207031.4169121 1.5708523.1646385 3.2004719-.4936523 4.6455059-1.4749222 3.2437096-.9716949 2.8336906-3.7158203 13.0517578-.0493164.1923828-.2148438.3447266-.4321289.3984375-.3666725.1000862-.7646255-.1473541-.7836914-.5087891-.2495117-4.734375.8120117-9.4619141 3.1137695-13.7548828.2827148-.5253906.6035156-1.1220703.6513672-1.8232403.0585938-.8486328-.3959961-1.859375-1.3774414-2.1474609-.6069183-.1779442-1.1462631-.0187435-1.7119141.1708984-.2539063.0859375-.4936523.1669922-.6923828.1767578-.5146484-.0166016-.940918-.4287109-1.0898438-.8789063-.1977539-.5957031-.0678711-1.3154297.0859375-1.9404297.5107422-2.0771484 1.3261719-3.9306641 2.4238281-5.5107422 2.4511719-3.5263672 5.8085938-6.3388672 10.3081055-8.5849609-.1458168 3.4996034-1.723381 7.3862955-4.7988281 10.4853517zm-14.1689472-1.9003906c1.0971699 1.5791016 1.9125996 3.4335938 2.4233418 5.5107422.1538086.625.2841797 1.3447266.0864258 1.9414063-.1494141.4492188-.6064453.8603516-1.0898438.8779297-.5854073-.0287666-1.4204941-.637373-2.4047871-.3476563-.980957.2880859-1.4355564 1.2988281-1.3769531 2.1474609.0478516.70117.3686523 1.2978497.6953125 1.9052715 2.2622089 4.2197266 3.3232441 8.9560547 3.0683613 13.6992188-.0112305.2119141-.144043.3417969-.2216797.4003906-.3184433.2378235-.6333313.0780754-.7333984.0703125-.2226582-.0517578-.39258-.2060547-.442873-.4013672l-2.5361328-9.9072266c-.2929688-1.1455078-.7607422-2.2158203-1.1762695-3.1298828-.6696472-1.4785461-.9051189-3.0951653-.4936523-4.6455059.1567287-.5917969.2475586-1.2431641.269043-1.9375.0493164-1.5722656-.5751953-3.09375-1.7583008-4.2841797-3.956543-3.9814453-4.7456055-8.3466797-4.8623047-10.6054688 4.6225585 2.2656251 8.0581053 5.116211 10.5537108 8.7060548z"/><path d="m44.5859871 13.0324154c.1118164.0585938.2314453.0869141.3500977.0869141.7810898 0 1.0393791-1.0496588.3510742-1.4130859-9.7197266-5.1396484-17.5170918-.1796875-17.8437519.0351563-.3461914.2265625-.4433594.6894531-.2177734 1.0361328.2255859.3476563.6889648.4443359 1.0371094.2207031.2993163-.1923829 7.4116229-4.678711 16.323244.0341796z"/><path d="m38.8013191 35.6867104c.2070313-.3583984.0844727-.8173828-.2739258-1.0244141-2.3349609-1.3496094-4.4980469-.0439453-4.5883789.0117188-.3525391.2177734-.4614258.6806641-.2431641 1.0322266.2182617.3525391.6806641.4609375 1.0322266.2431641.0151367-.0087891 1.4819336-.8945313 3.0483398.0117188.3558656.2058752.8164483.0869063 1.0249024-.2744142z"/><path d="m21.1636219 24.3585873c-2.3179054-2.8191185-6.883441-1.4835167-7.2021484 2.1523438-.0947266 1.0859375.2373047 2.1513672.9345703 3h.0004883c.6879883.8369141 1.875 1.6337891 3.0981445 2.0791016 3.0830517 1.1243801 5.1368694-.4149857 4.6098633-3.7890625-.2006836-1.2861329-.7529297-2.6054689-1.440918-3.4423829zm-.4428711 5.8496093c-.4111328.3369141-1.237793.328125-2.2124023-.0273438-.9555664-.3486328-1.9414063-1-2.453125-1.6230469-.4472656-.5429688-.659668-1.2236328-.5991211-1.9160156.2011433-2.2992401 3.0777836-3.1191006 4.5488281-1.3300781.5112305.6220703.9604492 1.7148438 1.1176758 2.7207031.1596679 1.0244142.0097656 1.8378907-.4018555 2.1757813z"/><path d="m53.5098152 22.5089779c-2.477417.2679501-3.8245659 2.513361-4.203125 4.9394531-.5348015 3.4239788 1.5742111 4.8963337 4.6103516 3.7890625 1.2226563-.4453125 2.409668-1.2421875 3.0976563-2.0791016h.0004883c2.3212012-2.8251037.1146392-7.0532531-3.5053712-6.649414zm2.3461914 5.6962891c-.9416809 1.1465473-3.6540337 2.4796867-4.6660156 1.6503906-.4111328-.3378906-.5610352-1.1513672-.4013672-2.1757813.1572266-1.0058594.6064453-2.0986328 1.1181641-2.7207031 1.4766922-1.7978573 4.3478241-.961977 4.5483398 1.3300781.0605469.6923828-.1518555 1.3730469-.5991211 1.9160157z"/><path d="m47.1558113 36.9113197c-.3447266.2294922-.4384766.6953125-.2084961 1.0400391l3.010498 4.5202637-.2893066.192627c-.3222656.2138672-.4282227.6386719-.2451172.9794922l.855957 1.5908203c.1357422.2519531.394043.3945313.6611328.3945313.5605392 0 .9307556-.601963.6601563-1.1054688l-.5327148-.9892578.690918-.4599609.8061523.9931641c.2607422.3203125.7324219.3710938 1.0551758.109375.3217773-.2607422.3706055-.7333984.1098633-1.0546875l-1.2363281-1.5234375c-.2441406-.3007813-.6772461-.3671875-.9980469-.1513672l-.2893677.192749-3.0109253-4.520874c-.2299805-.3457033-.6972656-.4375002-1.0395508-.208008z"/><path d="m68.8520966 59.7472572c-.2304688-.3447266-.6962891-.4384766-1.0400391-.2080078l-7.7373009 5.1543007c-.3447266.2294922-.4379883.6953125-.2080078 1.0400391.2290115.3435135.6933327.4382553 1.0400391.2080078l7.7373009-5.1543007c.3447265-.2294922.4379882-.6953125.2080078-1.0400391z"/><path d="m68.7651825 64.6144485-.2732544.1820068-1.1149292-1.6741982c-.2294922-.3457031-.6967773-.4375-1.0395508-.2080078-.3447266.2294922-.4384766.6953125-.2084961 1.0400391l1.1142578 1.6738319c-.1007919.0670929-1.4313583.9528351-1.3305664.8857422l-1.1811523-1.7724609c-.2304688-.3457031-.6967773-.4375-1.0400352-.2080078-.3447266.2294922-.4379883.6953125-.2080078 1.0400391l1.1807823 1.7722168-.2730713.1818848c-.6170807.4108047-.3234024 1.3740234.4160156 1.3740234.3712997 0 .5104904-.2273636 1.3122559-.7235107.1007843-.0671234 1.3905792-.9261322 1.2897949-.8590088l2.1870117-1.456543c.3447266-.2294922.4384766-.6953125.2084961-1.0400391-.2299805-.3457031-.6972656-.4374999-1.0395508-.2080078z"/><path d="m60.8735847 58.3331947c.1445313.2167969.3828125.3339844.625.3339844.1430664 0 .2875977-.0410156.4150391-.1259766l1.6403809-1.0921631 1.5197716 2.2816162c.2294922.3447266.6953125.4355469 1.0400391.2080078.3447266-.2294922.4379883-.6953125.2080078-1.0400391-.2645187-.3971252-10.1103401-15.1786575-9.5776329-14.3789063-.2358398-.3544922-.5957031-.5957031-1.0126953-.6787109-.4194336-.0839844-.84375.0009766-1.1972656.2363281l-3.6103516 2.4042969c-.730957.4863281-.9301758 1.4775391-.4428711 2.2109375l9.5776367 14.3789063c.1445313.2167969.3823242.3339844.6245117.3339844.5890312 0 .9593811-.6625977.6235352-1.1660156l-9.5771485-14.3779297c-.1002274-.1528854.0143509-.0732841 3.637207-2.5361328.0361328-.0253906.1044922-.0107422.1293945.0263672l2.2205811 3.3338013-1.6405029 1.0929565c-.3447266.2294922-.4379883.6953125-.2080078 1.0400391.2290115.3435173.6933327.4382629 1.0400391.2080078l1.6400146-1.0926514 1.6715088 2.5093994-1.640625 1.0930176c-.3447266.2294922-.4379883.6953125-.2080078 1.0400391.1445313.2167969.3823242.3339844.6245117.3339844.1430664 0 .2875977-.0410156.4155273-.1259766l1.6400757-1.0927124 1.6715088 2.5094604-1.6401978 1.092041c-.3447265.2294923-.4384765.6953126-.2089844 1.0400391z"/><path d="m22.3237171 60.0497475c-.0784779.2989349-.0143929-.3375206-.0375366 5.4328651 0 6.3478928 30.0795918 6.3705902 30.0795918 0-.0232735-5.7562447.0409966-5.1409149-.0383911-5.4369545.0004883-.0181885.0081177-.0349731.0081177-.0532837 0-5.5008507-22.8294392-6.3221207-28.7233295-2.0686646-.7391263.5325967-1.3145353 1.2160531-1.2884523 2.1260377zm14.9995747-3.3308106c8.246582 0 13.5092773 1.9394531 13.5092773 3.2744141 0 .2480469-.2568359.5673828-.7026367.8867188-5.6468506-2.8574905-19.9478798-2.8668785-25.6132832 0-.2693272-.1929016-.7001953-.5557251-.7001953-.8876953 0-.3045044.2861938-.640625.8061523-.9778442 1.7628175-1.1408693 6.3370362-2.2955934 12.7006856-2.2955934zm11.0354614 5.03302c-5.6226616 2.0231934-16.4437809 2.0241356-22.0683002-.0009766 5.5093593-2.0134925 16.5154934-2.0296287 22.0683002.0009766zm-11.0325317 7.0119057c-8.2656269 0-13.540041-1.9433594-13.540041-3.28125v-3.3059731c5.0705814 3.4418831 22.0141163 3.4422112 27.0795918-.0037842v3.3097572c-.0000001 1.3378907-5.2744141 3.2812501-13.5395508 3.2812501z"/></g></svg>