<svg id="Layer_1" viewBox="0 0 168 168" xmlns="http://www.w3.org/2000/svg" data-name="Layer 1"><g fill="#2d4356"><path d="m38.25879 42.63477a.99739.99739 0 0 0 .76459-.35449q.6329-.75146 1.29254-1.4776a1 1 0 1 0 -1.48145-1.34368q-.68262.75284-1.33936 1.5293a1.00109 1.00109 0 0 0 .76367 1.64648z"/><path d="m33.812 45.85449a1.00038 1.00038 0 1 0 1.65717 1.12109q.54932-.813 1.128-1.60651a1.00007 1.00007 0 1 0 -1.6153-1.17957q-.59987.8217-1.16987 1.66499z"/><path d="m42.36377 38.2666a.99654.99654 0 0 0 .69141-.27734q.70816-.67822 1.44141-1.335a.99971.99971 0 1 0 -1.333-1.49023q-.75806.67667-1.49115 1.37891a1.00071 1.00071 0 0 0 .69135 1.72363z"/><path d="m46.90137 34.35156a.9949.9949 0 0 0 .6123-.21q.7749-.60059 1.57135-1.17584a1.00052 1.00052 0 0 0 -1.17194-1.62195q-.824.5961-1.625 1.21765a1 1 0 0 0 .61328 1.7901z"/><path d="m57.05707 28.02728a.98943.98943 0 0 0 .4375-.1015q.87982-.42929 1.77545-.83112a1.00015 1.00015 0 1 0 -.81641-1.82611q-.92661.41446-1.83594.85931a1.00045 1.00045 0 0 0 .43939 1.89941z"/><path d="m31.0918 52.44629a1.00093 1.00093 0 0 0 1.35107-.418q.45767-.87012.9472-1.7207a1.00008 1.00008 0 1 0 -1.7334-.998q-.50821.88321-.9834 1.78424a1.00177 1.00177 0 0 0 .41853 1.35246z"/><path d="m51.81787 30.92767a.99853.99853 0 0 0 .52686-.15039q.832-.51709 1.68359-1.00873a1.00019 1.00019 0 0 0 -1-1.73248q-.87964.50839-1.7392 1.042a1.00008 1.00008 0 0 0 .52875 1.84961z"/><path d="m64.13818 23.06451q-.96671.31915-1.91846.66986a.99994.99994 0 1 0 .69049 1.87689q.92056-.33838 1.85687-.64838a.99992.99992 0 1 0 -.62891-1.89838z"/><path d="m136.59857 56.96576q.36557.90829.69733 1.83014a1.00005 1.00005 0 1 0 1.88177-.67773q-.34479-.958-.72357-1.89935a1.00012 1.00012 0 1 0 -1.85553.74695z"/><path d="m138.48578 62.53131q.26221.94327.48932 1.89935a1.00007 1.00007 0 0 0 1.94629-.461q-.23575-.99463-.50879-1.97357a.99989.99989 0 1 0 -1.92682.53522z"/><path d="m141.71387 67.96289a.99987.99987 0 0 0 -1.97455.31641c.05066.31738.08978.63867.1347.958a6.01312 6.01312 0 1 0 2.01416-.03613c-.0567-.41308-.10888-.82717-.17431-1.23828zm3.28613 7.10162a4.00053 4.00053 0 1 1 -3.99951-3.93561 3.97143 3.97143 0 0 1 3.99951 3.93561z"/><path d="m26.92041 63.68457a.99911.99911 0 0 0 1.22461-.70709q.25488-.9505.54541-1.88959a1.00033 1.00033 0 0 0 -1.91113-.5918q-.301.97559-.56592 1.96387a.99949.99949 0 0 0 .70703 1.22461z"/><path d="m25.80469 69.57709a1.10846 1.10846 0 0 0 .15039.0108 1.00006 1.00006 0 0 0 .9873-.85059q.14648-.97412.32861-1.93359a1.00006 1.00006 0 1 0 -1.96484-.374q-.189.999-.34131 2.00879a1.00034 1.00034 0 0 0 .83985 1.13859z"/><path d="m28.69287 57.94727a.99895.99895 0 0 0 1.2959-.56549q.35962-.9169.75244-1.81537a1.00016 1.00016 0 0 0 -1.833-.80084q-.408.93466-.78076 1.88483a.99993.99993 0 0 0 .56542 1.29687z"/><path d="m108.82367 27.71576q.89145.42636 1.76373.88092a1.00091 1.00091 0 0 0 .92291-1.77637q-.90244-.46875-1.8233-.91016a1.0007 1.0007 0 0 0 -.86334 1.8056z"/><path d="m124.78271 39.05658a1.00023 1.00023 0 1 0 1.42285-1.40619q-.71558-.7251-1.45758-1.42383a1.00029 1.00029 0 0 0 -1.372 1.456q.71548.67538 1.40673 1.37402z"/><path d="m120.42328 35.08588a.99994.99994 0 1 0 1.26764-1.54681q-.78735-.646-1.59814-1.26465a1.0002 1.0002 0 0 0 -1.21289 1.59076q.78304.59774 1.54339 1.2207z"/><path d="m128.69867 43.46088a1.00026 1.00026 0 0 0 1.56354-1.248q-.63574-.797-1.29932-1.56934a.99965.99965 0 1 0 -1.5166 1.30273q.63949.747 1.25238 1.51461z"/><path d="m114.01172 30.53217q.84091.51425 1.66156 1.05573a1.00028 1.00028 0 1 0 1.10162-1.6699q-.84961-.55966-1.7207-1.09277a1.00006 1.00006 0 1 0 -1.04248 1.707z"/><path d="m135.001 53.38379a.99972.99972 0 1 0 1.79492-.88092q-.449-.9169-.93018-1.81049a1.00011 1.00011 0 1 0 -1.76172.9472q.46361.86427.89698 1.74421z"/><path d="m68.28857 23.88666a.99911.99911 0 0 0 .25-.03119q.95-.24609 1.91113-.458a1.00071 1.00071 0 0 0 -.43262-1.9541q-.99463.2211-1.97748.47363a1.0007 1.0007 0 0 0 .249 1.96967z"/><path d="m132.12061 48.25287a1.00007 1.00007 0 0 0 1.68848-1.0722q-.54648-.86142-1.12311-1.6983a.99965.99965 0 1 0 -1.6474 1.13281q.55517.81014 1.08203 1.63769z"/><path d="m80.127 22.07318c.018 0 .03607 0 .05371-.00092q.97844-.05273 1.96629-.07226a1.00039 1.00039 0 0 0 .97955-1.02051 1.02712 1.02712 0 0 0 -1.02055-.97949q-1.02036.02051-2.03082.07416a1.00021 1.00021 0 0 0 .05182 1.999z"/><path d="m74.1626 22.68549a1.00872 1.00872 0 0 0 .15228-.01172q.969-.14786 1.9483-.26556a1.00017 1.00017 0 0 0 -.23627-1.98633q-1.01294.12149-2.01471.27441a1.00041 1.00041 0 0 0 .15039 1.9892z"/><path d="m103.37988 25.44336q.92661.33243 1.83844.69434a.9852.9852 0 0 0 .36908.07129.99969.99969 0 0 0 .37012-1.92871q-.94263-.37646-1.90283-.71979a1.00007 1.00007 0 1 0 -.6748 1.88287z"/><path d="m86.0791 22.04791q.9873.04376 1.96442.12006c.02631.00189.05219.00293.07758.00293a1 1 0 0 0 .07568-1.99713q-1.00781-.07755-2.02686-.124a1.00009 1.00009 0 0 0 -.09082 1.99811z"/><path d="m91.95068 22.60156q.97641.14209 1.94238.31342a.97735.97735 0 0 0 .17572.01569 1.00045 1.00045 0 0 0 .17389-1.98535q-.99683-.17734-2.00586-.32324a1 1 0 1 0 -.28613 1.97949z"/><path d="m97.73682 23.73541q.95654.23721 1.90039.5058a.98251.98251 0 0 0 .27338.03809 1.00047 1.00047 0 0 0 .27252-1.96289q-.97485-.27695-1.96393-.52344a1.00072 1.00072 0 0 0 -.48236 1.94244z"/><path d="m52.32672 136.41211a1.00025 1.00025 0 1 0 -1.10162 1.66989q.84961.55966 1.7207 1.09283a1.00009 1.00009 0 1 0 1.04248-1.707q-.84091-.51422-1.66156-1.05572z"/><path d="m110.50537 140.07416q-.87973.42938-1.77539.83112a1.00015 1.00015 0 0 0 .81641 1.82611q.92661-.41446 1.83594-.85931a1.00019 1.00019 0 0 0 -.877-1.79791z"/><path d="m33 92.93549a6.00042 6.00042 0 1 0 -6.88867 5.86328c.05664.41315.1084.82721.17432 1.23834a1.00044 1.00044 0 0 0 .98633.8418.97448.97448 0 0 0 .15869-.0127.99955.99955 0 0 0 .82959-1.14551c-.05078-.31744-.08984-.63873-.13477-.958a5.95319 5.95319 0 0 0 4.87451-5.82721zm-6.00049 3.93561a3.93559 3.93559 0 1 1 4.00049-3.93561 3.97237 3.97237 0 0 1 -4.00049 3.9356z"/><path d="m142.69379 101.57031q.189-.999.34143-2.00885a1 1 0 1 0 -1.9776-.29877q-.14639.97412-.32861 1.93359a1.00043 1.00043 0 0 0 .79639 1.16992 1.02744 1.02744 0 0 0 .187.01758.99983.99983 0 0 0 .98139-.81347z"/><path d="m140.26556 108.208a1.0008 1.0008 0 0 0 .95514-.7041q.301-.97568.56592-1.96393a.99988.99988 0 1 0 -1.93164-.51752q-.25479.95078-.54541 1.88965a1.001 1.001 0 0 0 .956 1.2959z"/><path d="m115.65527 137.22266q-.832.51709-1.68359 1.00873a1.00019 1.00019 0 0 0 1 1.73248q.87964-.5083 1.7392-1.042a1.00021 1.00021 0 0 0 -1.0556-1.69922z"/><path d="m105.08978 142.38867q-.92056.33838-1.85687.64844a.99993.99993 0 0 0 .31451 1.94916 1.01064 1.01064 0 0 0 .31439-.05078q.96671-.31924 1.91846-.66992a.99994.99994 0 0 0 -.69049-1.87689z"/><path d="m135.55707 115.97168q-.45758.87012-.9472 1.7207a1.00011 1.00011 0 0 0 1.73346.998q.50812-.88321.9834-1.78406a1.00065 1.00065 0 0 0 -1.76965-.93463z"/><path d="m120.48627 133.8584q-.77481.60059-1.57129 1.17578a1.00059 1.00059 0 0 0 1.17194 1.62213q.82388-.59628 1.625-1.21783a.99986.99986 0 1 0 -1.22565-1.58008z"/><path d="m137.7749 113.75a.98641.98641 0 0 0 .3999.084 1.00027 1.00027 0 0 0 .917-.59961q.408-.93466.78082-1.88477a1 1 0 1 0 -1.86145-.73145q-.35953.917-.75238 1.81543a.9997.9997 0 0 0 .51611 1.3164z"/><path d="m132.53082 121.02441q-.54932.813-1.12805 1.60645a1.00009 1.00009 0 0 0 1.6153 1.17963q.59985-.82169 1.16992-1.665a1.00038 1.00038 0 1 0 -1.65717-1.12109z"/><path d="m128.97662 125.71967q-.6329.75156-1.29254 1.4776a1 1 0 0 0 1.48138 1.34369q.68271-.75284 1.33942-1.5293a1.0006 1.0006 0 0 0 -1.52826-1.292z"/><path d="m124.94476 130.01068q-.70807.67831-1.44135 1.335a.99967.99967 0 1 0 1.33295 1.49017q.75815-.67667 1.49121-1.37891a1.00049 1.00049 0 0 0 -1.38281-1.44629z"/><path d="m34.499 119.43951a.99955.99955 0 0 0 -.30811 1.37976q.54639.86142 1.12311 1.6983a.99965.99965 0 1 0 1.6474-1.13281q-.55518-.81015-1.082-1.6377a1.00168 1.00168 0 0 0 -1.3804-.30755z"/><path d="m46.16937 133.05371a1.00014 1.00014 0 0 0 .13922 1.40717q.78735.64453 1.59863 1.26471a1.00023 1.00023 0 0 0 1.21289-1.59082q-.78305-.59775-1.543-1.2207a1.00148 1.00148 0 0 0 -1.40774.13964z"/><path d="m41.80322 128.93457a1.001 1.001 0 0 0 -.00885 1.415q.71567.7251 1.45764 1.42377a1.00029 1.00029 0 0 0 1.372-1.456q-.71558-.67529-1.40674-1.374a1.00143 1.00143 0 0 0 -1.41405-.00877z"/><path d="m39.30127 124.53906a1.00026 1.00026 0 0 0 -1.56348 1.248q.63574.79688 1.29932 1.56927a.99963.99963 0 1 0 1.5166-1.30267q-.63949-.74702-1.25244-1.5146z"/><path d="m27.5874 106.00391a.99921.99921 0 0 0 .96289.7334 1.02141 1.02141 0 0 0 .26855-.03613 1.00148 1.00148 0 0 0 .69531-1.23236q-.26221-.94354-.48926-1.89954a1.00029 1.00029 0 0 0 -1.94629.46289q.23585.99183.5088 1.97174z"/><path d="m29.54541 111.78131a1.00012 1.00012 0 1 0 1.85547-.74713q-.36548-.9082-.69727-1.83008a1.00007 1.00007 0 1 0 -1.88184.67767q.34498.9581.72364 1.89954z"/><path d="m32.13428 117.30756a1.00009 1.00009 0 0 0 1.76172-.94714q-.46362-.86435-.897-1.7442a.99971.99971 0 1 0 -1.79492.88086q.449.91698.9302 1.81048z"/><path d="m57.4126 139.40326a1.00093 1.00093 0 0 0 -.92291 1.77643q.90244.46875 1.8233.9101a1.00068 1.00068 0 0 0 .86328-1.8056q-.89145-.42628-1.76367-.88093z"/><path d="m62.78168 141.8623a.99953.99953 0 1 0 -.7392 1.85736q.94263.37656 1.90283.71985a1.0001 1.0001 0 1 0 .6748-1.88293q-.9266-.33243-1.83843-.69428z"/><path d="m141.10742 87.53906-5 9.8916a1 1 0 0 0 1.39545 1.31543l4.49713-2.61909 4.49707 2.61908a1.00007 1.00007 0 0 0 1.39551-1.31543l-5-9.8916a1.04087 1.04087 0 0 0 -1.78516.00001zm1.39545 6.56641a.99906.99906 0 0 0 -1.0058 0l-2.08007 1.21094 2.583-5.10941 2.583 5.10944z"/><path d="m83 127.00879a42.32983 42.32983 0 0 0 41.88818-38.93359 2.80761 2.80761 0 0 0 -.74066-2.14648 2.93039 2.93039 0 0 0 -2.14752-.92872h-51.04492l-10.45661-15.60449-.0014.002a5.99949 5.99949 0 1 0 -6.792 3.456h-.002l5.86382 12.14649h-15.56689a2.93039 2.93039 0 0 0 -2.14752.92871 2.80761 2.80761 0 0 0 -.74066 2.14648 42.33048 42.33048 0 0 0 41.88818 38.9336zm-32-60.01172a4 4 0 1 1 4.001 4 4.005 4.005 0 0 1 -4.001-4zm4.95313 5.91793a5.96392 5.96392 0 0 0 3.33887-1.72951l-.00049.001 9.25591 13.81351h-6.75982zm-12.84713 15.00388a.80977.80977 0 0 1 .21478-.6308.90851.90851 0 0 1 .67922-.28708h78a.90851.90851 0 0 1 .6792.28711.81021.81021 0 0 1 .21478.6308c-.08149 1.0401-.21381 2.06549-.37347 3.08209h-79.041c-.15969-1.01662-.29201-2.042-.37351-3.08212zm79.04879 5.08312a39.9532 39.9532 0 0 1 -78.30957 0z"/><path d="m94.94867 82c32.84961-3.89264 26.57133-36.00781 26.57133-36.00781-35.26762 4.37988-26.57133 36.00781-26.57133 36.00781zm5.07281-22.76459c3.88574-5.793 10.53558-9.48053 19.78369-10.9776.3999 4.042.646 13.7959-4.9151 21.4043-3.77826 5.16986-9.62689 8.47949-17.36615 9.90326l13.29535-18.997a.99991.99991 0 1 0 -1.63855-1.14648l-12.92535 18.46867c-.51605-4.43056-.57715-12.17968 3.76611-18.65515z"/><path d="m75.55127 49.99316s-8.47998 23.25484 14.21191 26.00484c0 0 10.56-18.95112-14.21191-26.00484zm13.57812 22.27735-5.272-8.78912a1 1 0 0 0 -1.71484 1.0293l5.44971 9.085c-4.4585-.96-7.67236-2.96191-9.53906-5.99512-3.11475-5.06348-1.96875-11.87891-1.1557-15.09668 6.32556 2.12787 10.40619 5.30756 12.14105 9.4668a15.1904 15.1904 0 0 1 .09084 10.29982z"/><path d="m91.99847 118.00677a1.11236 1.11236 0 0 0 .14941-.01068c16.76959-2.5127 22.51672-14.06738 22.753-14.55762a1 1 0 0 0 -1.80078-.87012c-.0542.11035-5.56982 11.10052-21.248 13.44922a1.00011 1.00011 0 0 0 .14636 1.9892z"/><path d="m95.65771 39.84467s-11.98632 6.72564-3.44091 18.35162c0 0 12.55127-5.81543 3.44091-18.35162zm-4.34423 8.61233a10.78728 10.78728 0 0 1 3.81885-5.78406c1.65137 2.77625 2.19476 5.32318 1.61615 7.58588a9.7061 9.7061 0 0 1 -3.92615 5.23828 9.72242 9.72242 0 0 1 -1.50885-7.0401z"/><path d="m25.10742 80.46088a1.00018 1.00018 0 0 0 1.78516 0l5-9.8916a1 1 0 0 0 -1.39551-1.31537l-4.49707 2.61909-4.49707-2.61908a1 1 0 0 0 -1.39551 1.31537zm.38965-6.56641a.99617.99617 0 0 0 1.00586 0l2.08007-1.21088-2.583 5.10941-2.583-5.10937z"/><path d="m158 13.5a2 2 0 1 0 -2 2 2.00229 2.00229 0 0 0 2-2zm-3 0a1 1 0 1 1 1 1 1.001 1.001 0 0 1 -1-1z"/><path d="m63 16.5a2 2 0 1 0 -2-2 2.00229 2.00229 0 0 0 2 2zm0-3a1 1 0 1 1 -1 1 1.001 1.001 0 0 1 1-1z"/><path d="m142 34.5625a2.0625 2.0625 0 1 0 -2.0625-2.0625 2.06487 2.06487 0 0 0 2.0625 2.0625zm0-3.09375a1.03125 1.03125 0 1 1 -1.03125 1.03125 1.03226 1.03226 0 0 1 1.03125-1.03125z"/><path d="m33 7.5a2 2 0 1 0 -2-2 2.00229 2.00229 0 0 0 2 2zm0-3a1 1 0 1 1 -1 1 1.001 1.001 0 0 1 1-1z"/><path d="m11 50.5a2 2 0 1 0 2 2 2.00229 2.00229 0 0 0 -2-2zm0 3a1 1 0 1 1 1-1 1.001 1.001 0 0 1 -1 1z"/><path d="m152 146h-51.869a.98779.98779 0 0 0 .54822-1.13672.99974.99974 0 0 0 -1.21777-.71881q-.95.24619-1.91113.458a1.0012 1.0012 0 0 0 -.75983 1.1944.96874.96874 0 0 0 .08366.20313h-2.1095a.98911.98911 0 0 0 -1.07953-.67383q-.969.14795-1.9483.26563a.98969.98969 0 0 0 -.68469.4082h-2.82435a.98413.98413 0 0 0 -.40851-.07233q-.97842.05283-1.96631.07233h-3.7403a.9568.9568 0 0 0 -.19177-.04791q-.9873-.04376-1.96442-.12012a.9966.9966 0 0 0 -.60791.168h-2.53991a.9847.9847 0 0 0 -.75934-.60162q-.97641-.142-1.94244-.31342a.994.994 0 0 0 -1.15906.81055.93152.93152 0 0 0 .00239.10452h-2.29126a.9939.9939 0 0 0 -.39575-1.73541q-.95654-.2373-1.90039-.5058a1.00036 1.00036 0 0 0 -.5459 1.9248c.39288.11157.791.21222 1.18732.31641h-53.00422a1 1 0 0 0 0 2h136a1 1 0 0 0 0-2z"/><path d="m11 146h-5a1 1 0 0 0 0 2h5a1 1 0 0 0 0-2z"/><circle cx="1" cy="147" r="1"/><path d="m162 146h-5a1 1 0 0 0 0 2h5a1 1 0 0 0 0-2z"/><circle cx="167" cy="147" r="1"/></g><circle cx="112" cy="56.994" fill="#0bceb2" r="1"/><circle cx="81" cy="60.995" fill="#0bceb2" r="1"/><circle cx="89" cy="117.006" fill="#0bceb2" r="1"/><path d="m8.583 17.511 1.487-1.955-.939-.532-.954 2.19h-.032l-.97-2.175-.955.548 1.471 1.909v.031l-2.3-.297v1.064l2.316-.297v.031l-1.487 1.908.892.564 1.018-2.206h.03l.939 2.19.986-.563-1.502-1.878v-.031l2.362.282v-1.064l-2.362.312z" fill="#0bceb2"/><path d="m88.777 14.567-.857 1.099.514.324.586-1.27h.018l.54 1.261.568-.324-.865-1.082v-.018l1.36.163v-.613l-1.36.18v-.018l.856-1.126-.54-.306-.55 1.261h-.018l-.558-1.253-.551.316.848 1.099v.018l-1.325-.171v.613l1.334-.171z" fill="#0bceb2"/><path d="m165 41.022v-.66l-1.466.194v-.02l.923-1.214-.583-.33-.593 1.36h-.019l-.602-1.35-.593.34.913 1.185v.019l-1.428-.184v.66l1.438-.184v.019l-.923 1.185.553.35.632-1.37h.019l.583 1.36.612-.35-.932-1.165v-.02z" fill="#0bceb2"/><path d="m123.443 6.086 1.258-1.655-.794-.45-.808 1.853h-.026l-.821-1.84-.808.464 1.245 1.615v.026l-1.947-.251v.9l1.96-.252v.027l-1.258 1.615.754.477.862-1.867h.025l.795 1.853.834-.476-1.271-1.589v-.027l1.999.239v-.9l-1.999.264z" fill="#0bceb2"/><path d="m105 152h-42a1 1 0 0 0 0 2h18v2h-10a1 1 0 0 0 0 2h27a1 1 0 0 0 0-2h-11v-2h18a1 1 0 0 0 0-2z" fill="#0bceb2"/><path d="m119 152h-10a1 1 0 0 0 0 2h10a1 1 0 0 0 0-2z" fill="#0bceb2"/><path d="m59 152h-10a1 1 0 0 0 0 2h10a1 1 0 0 0 0-2z" fill="#0bceb2"/></svg>