<?xml version="1.0" encoding="UTF-8"?>
<svg xmlns="http://www.w3.org/2000/svg" xmlns:xlink="http://www.w3.org/1999/xlink" version="1.1" id="Capa_1" x="0px" y="0px" viewBox="0 0 512 512" style="enable-background:new 0 0 512 512;" xml:space="preserve" width="512" height="512">
<g>
	<path style="fill:#FED2A4;" d="M129.224,228.43c17.244-47.447-15.618-109.958-28.253-158.3C91.75,34.85,92.377,7.5,92.377,7.5&#10;&#9;&#9;h227.194c31.286,20.47,67.692,47.706,73.499,77.748c4.316,22.328-8.344,36.606-27.327,48.526&#10;&#9;&#9;c71.872,43.232,104.107,132.382,71.391,222.27c-22.505,61.833-69.95,105.763-121.999,119.984L301.946,504.5H93.124&#10;&#9;&#9;c-17.395-27.992-31.052-54.256-31.052-93.127v-0.004C62.072,336.499,98.807,312.125,129.224,228.43z"/>
	<path style="fill:#FFBD86;" d="M365.743,133.774c18.983-11.92,31.643-26.198,27.327-48.526&#10;&#9;&#9;C387.263,55.206,350.857,27.97,319.571,7.5h-32.325c31.286,20.47,67.692,47.706,73.499,77.748&#10;&#9;&#9;c2.931,15.165-1.969,26.617-11.362,36.139c-6.868,6.962-6.125,18.426,1.579,24.45c59.364,46.413,83.767,128.002,53.847,210.207&#10;&#9;&#9;c-20.116,55.268-51.884,84.946-97.805,99.523c-11.169,3.545-20.267,11.741-25.166,22.386L269.621,504.5h32.325l13.189-28.472&#10;&#9;&#9;c52.05-14.221,99.494-58.151,121.999-119.984C469.85,266.157,437.615,177.006,365.743,133.774z"/>
	<path style="fill:none;stroke:#000000;stroke-width:15;stroke-linecap:round;stroke-linejoin:round;stroke-miterlimit:10;" d="&#10;&#9;&#9;M92.381,7.5c0,0-0.63,27.35,8.59,62.63c12.63,48.34,45.5,110.85,28.25,158.3c-10.94,30.11-22.7,52.54-33.27,72.41"/>
	<path style="fill:none;stroke:#000000;stroke-width:15;stroke-linecap:round;stroke-linejoin:round;stroke-miterlimit:10;" d="&#10;&#9;&#9;M79.991,331.99c-10.69,22.91-17.92,46.19-17.92,79.38c0,38.87,13.66,65.14,31.05,93.13"/>
	<path style="fill:none;stroke:#000000;stroke-width:15;stroke-linecap:round;stroke-linejoin:round;stroke-miterlimit:10;" d="&#10;&#9;&#9;M422.481,189.09c29.24,46.08,36.71,106.35,14.65,166.95c-22.5,61.84-69.95,105.77-122,119.99l-13.19,28.47"/>
	<path style="fill:none;stroke:#000000;stroke-width:15;stroke-linecap:round;stroke-linejoin:round;stroke-miterlimit:10;" d="&#10;&#9;&#9;M319.571,7.5c31.29,20.47,67.69,47.71,73.5,77.75c4.31,22.33-8.34,36.6-27.33,48.52c13.08,7.87,24.84,17.26,35.14,27.89"/>
	<path style="fill:#FE646F;" d="M404.267,302.935c-4.496,75.691-60.966,151.701-117.404,145.559&#10;&#9;&#9;c-37.304-4.06-57.3-34.331-65.128-75.318c-6.562-34.359-21.109-48.976-29.897-82.196c-23.111-87.354,44.6-147.349,108.307-144.548&#10;&#9;&#9;S408.974,223.69,404.267,302.935z"/>
	<path style="fill:none;stroke:#000000;stroke-width:15;stroke-linecap:round;stroke-linejoin:round;stroke-miterlimit:10;" d="&#10;&#9;&#9;M193.751,297.64c8.85,28.69,21.88,43.57,27.98,75.54c7.83,40.98,27.83,71.25,65.13,75.31c56.44,6.15,112.91-69.86,117.41-145.55&#10;&#9;&#9;c4.7-79.25-40.42-153.71-104.13-156.51c-56.72-2.49-116.61,44.8-112.75,116.86"/>
	<g>
		<path style="fill:#FED2A4;" d="M249.625,303.994L249.625,303.994c3.087,7.519,11.685,11.111,19.203,8.024l30.631-12.577&#10;&#9;&#9;&#9;l14.372,35.002l27.227-11.18l-19.962-48.616c-3.087-7.519-11.685-11.111-19.203-8.024l-44.245,18.167&#10;&#9;&#9;&#9;C250.13,287.878,246.538,296.476,249.625,303.994z"/>
		<path style="fill:#FED2A4;" d="M281.122,239.396l-11.053-26.918c-2.35-5.722-8.893-8.456-14.615-6.107l-28.929,11.878&#10;&#9;&#9;&#9;c-5.722,2.35-8.456,8.893-6.107,14.615v0c2.011,4.899,7.179,7.719,12.387,6.761l15.428-2.838l11.803,28.746&#10;&#9;&#9;&#9;c3.657,8.907,13.422,13.646,22.682,11.007l60.428-17.218l-14.566-35.475L281.122,239.396z"/>
		<path style="fill:#FED2A4;" d="M292.144,235.785L292.144,235.785l-11.022,3.611l-11.053-26.918&#10;&#9;&#9;&#9;c-2.35-5.722-8.893-8.456-14.615-6.107l-28.929,11.878c-5.722,2.349-8.456,8.893-6.107,14.615l0,0&#10;&#9;&#9;&#9;c2.011,4.899,7.179,7.719,12.387,6.761l15.428-2.838l11.803,28.746c2.789,6.793,9.132,11.148,16.092,11.669l-18.48,7.588&#10;&#9;&#9;&#9;c-7.519,3.087-11.111,11.685-8.024,19.203c3.087,7.519,11.685,11.111,19.203,8.024l30.631-12.577l1.092,2.661l-17.565,7.212&#10;&#9;&#9;&#9;c-0.578,0.238-1.208,0.324-1.829,0.25l-3.987-0.471c-1.748-0.206-3.397,0.854-3.935,2.53l-2.378,7.416&#10;&#9;&#9;&#9;c-0.775,2.417-2.27,4.56-4.34,6.03c-17.735,12.591-24.788,36.521-15.105,57.318c9.8,21.049,34.13,31.654,56.202,24.448&#10;&#9;&#9;&#9;c18.817-6.143,30.719-22.847,31.925-41.008l14.765-26.165c0,0,39.735-36.863,13.731-100.195&#10;&#9;&#9;&#9;C345.78,185.266,295.487,218.235,292.144,235.785z"/>
		<path style="fill:#FFBD86;" d="M332.594,209.708c5.015,4.677,9.592,11.351,13.362,20.534&#10;&#9;&#9;&#9;c23.115,56.296-5.713,91.677-12.404,98.844c-0.93,0.996-1.745,2.093-2.415,3.279l-11.871,21.038&#10;&#9;&#9;&#9;c-1.139,2.018-1.828,4.245-2.149,6.54c-2.356,16.841-13.923,31.903-31.581,37.668c-6.757,2.206-13.724,2.735-20.422,1.814&#10;&#9;&#9;&#9;c11.782,9.035,27.649,12.259,42.5,7.411c18.817-6.143,30.719-22.847,31.925-41.008l14.765-26.165&#10;&#9;&#9;&#9;c0,0,39.735-36.863,13.731-100.195C359.115,217.744,345.693,210.031,332.594,209.708z"/>
		<path style="fill:none;stroke:#000000;stroke-width:15;stroke-linecap:round;stroke-linejoin:round;stroke-miterlimit:10;" d="&#10;&#9;&#9;&#9;M292.144,235.785L292.144,235.785l-11.022,3.611l-11.053-26.918c-2.35-5.722-8.893-8.456-14.615-6.107l-28.929,11.878&#10;&#9;&#9;&#9;c-5.722,2.35-8.456,8.893-6.107,14.615l0,0c2.011,4.899,7.179,7.719,12.387,6.761l15.428-2.838l11.803,28.746&#10;&#9;&#9;&#9;c2.789,6.793,9.132,11.148,16.092,11.669l-18.48,7.588c-7.519,3.087-11.111,11.685-8.024,19.203&#10;&#9;&#9;&#9;c3.087,7.519,11.685,11.111,19.203,8.024l30.631-12.577l1.092,2.661l-17.565,7.212c-0.578,0.237-1.208,0.324-1.829,0.25&#10;&#9;&#9;&#9;l-3.987-0.471c-1.748-0.206-3.397,0.854-3.935,2.53l-2.378,7.416c-0.775,2.417-2.27,4.56-4.34,6.03&#10;&#9;&#9;&#9;c-17.735,12.591-24.788,36.521-15.105,57.318c9.801,21.049,34.13,31.654,56.202,24.448c18.817-6.143,30.719-22.847,31.925-41.008&#10;&#9;&#9;&#9;l14.765-26.165c0,0,39.735-36.863,13.731-100.195C345.78,185.266,295.487,218.235,292.144,235.785z"/>
		<path style="fill:none;stroke:#000000;stroke-width:15;stroke-linecap:round;stroke-linejoin:round;stroke-miterlimit:10;" d="&#10;&#9;&#9;&#9;M302.506,306.864l-3.046-7.419l-30.631,12.577c-7.522,3.088-16.119-0.511-19.203-8.024c-3.088-7.522,0.502-16.115,8.024-19.203&#10;&#9;&#9;&#9;l18.481-7.588"/>
		<path style="fill:none;stroke:#000000;stroke-width:15;stroke-linecap:round;stroke-linejoin:round;stroke-miterlimit:10;" d="&#10;&#9;&#9;&#9;M314.72,267.427c2.78,1.563,5.07,4.043,6.377,7.225L329,293.898"/>
		<path style="fill:none;stroke:#000000;stroke-width:15;stroke-linecap:round;stroke-linejoin:round;stroke-miterlimit:10;" d="&#10;&#9;&#9;&#9;M275.782,277.187c2.275,0.212,4.621,0.014,6.936-0.646l45.605-12.994"/>
	</g>
	<path style="fill:none;stroke:#000000;stroke-width:15;stroke-linecap:round;stroke-linejoin:round;stroke-miterlimit:10;" d="&#10;&#9;&#9;M286.863,448.494c-8.578,37.18,20.225,44.906,20.225,44.906"/>
</g>















</svg>
