<svg id="&#x421;&#x43B;&#x43E;&#x439;_1" enable-background="new 0 0 160 160" viewBox="0 0 160 160" xmlns="http://www.w3.org/2000/svg"><g><path d="m93.257 100.591c1.888.271 3.82.409 5.743.409 22.056 0 40-17.944 40-40s-17.944-40-40-40-40 17.944-40 40c0 6.018 1.302 11.801 3.871 17.189.468.981.063 2.148-.9 2.639.431.804.891 1.589 1.372 2.36.195-.219.395-.437.606-.648 1.182-1.182 2.913-2.47 4.937-3.721-3.194-5.385-4.886-11.498-4.886-17.819 0-19.299 15.701-35 35-35s35 15.701 35 35-15.701 35-35 35c-2.567 0-5.113-.293-7.598-.844-1.197 2.367-2.507 4.539-3.765 6.275 1.106.311 2.228.579 3.369.799.184-1.062 1.172-1.794 2.251-1.639z" fill="#ff7878"/><path d="m99 17c-24.262 0-44 19.738-44 44 0 6.618 1.433 12.98 4.26 18.911.475.997 1.67 1.42 2.666.945.016-.008.029-.02.045-.027.962-.49 1.367-1.658.9-2.639-2.569-5.389-3.871-11.172-3.871-17.19 0-22.056 17.944-40 40-40s40 17.944 40 40-17.944 40-40 40c-1.923 0-3.855-.138-5.743-.409-1.078-.155-2.067.578-2.25 1.64-.003.019-.011.036-.014.055-.157 1.093.602 2.107 1.695 2.264 2.075.299 4.199.45 6.312.45 24.262 0 44-19.738 44-44s-19.738-44-44-44z" fill="#2d3b72"/><path d="m72.372 76.854c1.941-1 4-1.919 6.029-2.666 5.176-1.905 12.061-3.461 15.467-.055 3.344 3.344 2.013 10.603-.755 17.3 1.932.371 3.902.567 5.887.567 17.093 0 31-13.906 31-31s-13.907-31-31-31-31 13.906-31 31c0 5.628 1.515 11.068 4.372 15.854zm18.532-26.758c-1.228-1.227-1.904-2.86-1.904-4.596s.676-3.369 1.904-4.597c1.227-1.227 2.859-1.903 4.596-1.903s3.369.676 4.596 1.904l3.904 3.904 3.904-3.904c1.227-1.228 2.859-1.904 4.596-1.904s3.369.676 4.596 1.904c1.228 1.227 1.904 2.86 1.904 4.596s-.676 3.369-1.904 4.597l-3.904 3.903 3.903 3.904c1.228 1.227 1.904 2.86 1.904 4.596s-.676 3.369-1.904 4.597c-1.226 1.227-2.858 1.903-4.595 1.903s-3.369-.676-4.596-1.904l-3.904-3.904-3.904 3.904c-1.227 1.228-2.859 1.904-4.596 1.904s-3.369-.676-4.596-1.904c-1.228-1.227-1.904-2.86-1.904-4.596s.676-3.369 1.904-4.597l3.904-3.903z" fill="#ffd09c"/><path d="m99 96c19.299 0 35-15.701 35-35s-15.701-35-35-35-35 15.701-35 35c0 6.321 1.692 12.434 4.886 17.819-2.025 1.251-3.756 2.54-4.937 3.721-.212.211-.411.429-.606.648-3.411 3.833-4.321 8.812-2.518 13.686l-4.211 4.211c-1.039 1.038-1.61 2.418-1.61 3.887 0 1.302.472 2.52 1.297 3.506-2.9 1.666-5.764 1.547-8.995 1.406-4.498-.196-9.599-.419-14.72 4.702-4.78 4.78-4.258 10.021-3.839 14.233.277 2.787.517 5.193-.534 7.282-1.855 3.688-4.895 3.943-9.316 3.903l-.897-.004c-1.104 0-2 .896-2 2s.896 2 2 2l.864.005c.291.002.593.005.904.005 3.867 0 9.139-.385 12.019-6.111 1.573-3.127 1.251-6.354.941-9.475-.404-4.061-.753-7.569 2.687-11.009 3.876-3.876 7.509-3.717 11.717-3.533 3.689.161 7.821.332 12.031-2.477 1.036 1.026 2.407 1.593 3.866 1.593 1.468 0 2.849-.572 3.886-1.61l4.212-4.211c5.152 1.907 10.426.784 14.333-3.125.681-.681 1.419-1.572 2.177-2.619 1.258-1.737 2.568-3.908 3.765-6.275 2.485.549 5.031.842 7.598.842zm-16.368 5.222c-3.039 3.039-7.089 3.689-11.113 1.782-.764-.362-1.673-.205-2.271.393l-5.162 5.162c-.564.565-1.551.564-2.116 0l-2.528-2.529c-.283-.283-.438-.658-.438-1.058 0-.399.156-.775.438-1.058l3.318-3.318c.529.754 1.219 1.615 2.124 2.521.391.391.902.585 1.414.585s1.024-.195 1.414-.585c.781-.781.781-2.047 0-2.829-1.935-1.936-2.635-3.616-2.659-3.675-.011-.03-.03-.055-.042-.083-.007-.016-.007-.033-.014-.048-1.907-4.023-1.258-8.074 1.781-11.113 2.421-2.421 7.89-5.544 13.005-7.427 3.591-1.322 6.29-1.812 8.176-1.812 1.583 0 2.594.345 3.081.831 3.319 3.321-3.415 19.268-8.408 24.261zm16.368-71.222c17.093 0 31 13.906 31 31s-13.907 31-31 31c-1.985 0-3.955-.196-5.888-.567 2.767-6.698 4.099-13.956.755-17.3-3.406-3.407-10.291-1.851-15.467.055-2.028.747-4.088 1.666-6.029 2.666-2.856-4.786-4.371-10.226-4.371-15.854 0-17.094 13.907-31 31-31z" fill="#2d3b72"/><path d="m91.039 76.961c-.487-.486-1.498-.831-3.081-.831-1.887 0-4.585.49-8.176 1.812-5.115 1.883-10.584 5.006-13.005 7.427-3.039 3.04-3.688 7.09-1.781 11.113.007.015.007.032.014.048.013.029.031.054.042.083.024.06.724 1.74 2.659 3.675.781.781.781 2.047 0 2.829-.39.39-.902.585-1.414.585s-1.023-.195-1.414-.585c-.906-.906-1.595-1.767-2.124-2.521l-3.318 3.318c-.283.283-.438.659-.438 1.058 0 .4.156.775.438 1.058l2.528 2.529c.564.564 1.551.565 2.116 0l5.162-5.162c.598-.598 1.507-.754 2.271-.393 4.024 1.908 8.074 1.257 11.113-1.782 4.994-4.993 11.728-20.94 8.408-24.261z" fill="#fff"/><path d="m35.443 77.76c1.042 1.401 2.299 2.659 3.742 3.74 2.015.887 4.024.534 5.537-.979 1.174-1.174 3.007-4.112 4.238-7.455 1.347-3.66 1.101-5.525.771-5.855-.33-.331-2.196-.576-5.855.771-3.343 1.231-6.281 3.063-7.456 4.238-1.514 1.513-1.866 3.524-.977 5.54z" fill="#fff"/><path d="m22.857 98.552c-2.402.768-5.391 1.724-6.755 5.816-.349 1.048.217 2.18 1.265 2.53.21.069.424.102.633.102.837 0 1.618-.53 1.897-1.368.691-2.074 1.844-2.524 4.178-3.271 2.25-.719 5.049-1.615 7.099-4.936 2.112-3.42 1.952-6.269 1.823-8.558-.075-1.34-.14-2.497.21-3.671.193-.645.996-1.401 1.81-1.986.623.573 1.269 1.125 1.961 1.633.103.075.212.141.326.195 1.323.627 2.692.934 4.032.934 2.287 0 4.486-.896 6.213-2.623 1.786-1.786 3.86-5.363 5.164-8.902 1.216-3.305 2.177-7.734-.154-10.065-2.332-2.332-6.761-1.371-10.066-.154-3.539 1.303-7.117 3.377-8.902 5.163-2.738 2.739-3.385 6.665-1.688 10.245.053.112.116.218.189.318.07.097.15.186.222.282-1.155.89-2.454 2.193-2.939 3.818-.55 1.844-.455 3.541-.371 5.038.117 2.083.218 3.883-1.233 6.232-1.273 2.063-2.96 2.603-4.914 3.228zm21.018-30.571c3.66-1.347 5.525-1.101 5.855-.771s.576 2.196-.771 5.855c-1.23 3.343-3.063 6.281-4.238 7.455-1.513 1.513-3.522 1.865-5.537.979-1.443-1.082-2.701-2.339-3.742-3.74-.889-2.016-.537-4.026.977-5.541 1.175-1.173 4.113-3.006 7.456-4.237z" fill="#2d3b72"/><path d="m95.937 125.585c1.866.816 3.728.49 5.129-.912 3.053-3.053 5.908-11.329 4.752-12.484-1.155-1.154-9.432 1.699-12.485 4.752-1.402 1.402-1.729 3.264-.91 5.132.979 1.316 2.159 2.495 3.514 3.512z" fill="#fff"/><path d="m84.47 126.07c-2.18-.096-4.648-.205-6.679 1.336-3.419 2.596-3.641 5.525-3.802 7.664-.087 1.159-.157 2.075-.653 2.82-.525.789-2.437 2.11-9.336 2.11-1.104 0-2 .896-2 2s.896 2 2 2c4.323 0 10.339-.403 12.664-3.891 1.079-1.618 1.204-3.275 1.314-4.738.143-1.899.247-3.271 2.231-4.778.881-.668 2.365-.603 4.085-.527 2.428.106 5.615.238 8.41-1.952.335.278.673.555 1.027.815.103.075.211.14.326.195 1.27.602 2.584.896 3.87.896 2.196 0 4.309-.86 5.967-2.519 2.943-2.943 8.817-14.077 4.752-18.142-4.066-4.065-15.199 1.81-18.142 4.752-2.63 2.63-3.251 6.399-1.622 9.837.053.111.116.218.188.318.242.333.503.652.765.97-1.556.988-3.353.923-5.365.834zm8.863-9.129c3.053-3.053 11.33-5.906 12.485-4.752 1.155 1.155-1.7 9.432-4.752 12.484-1.401 1.402-3.263 1.729-5.129.912-1.355-1.017-2.535-2.196-3.514-3.512-.819-1.868-.492-3.73.91-5.132z" fill="#2d3b72"/><path d="m97.267 64.269 5.319-5.319c.39-.391.902-.586 1.414-.586s1.024.195 1.414.586l5.318 5.318c.944.944 2.591.944 3.535 0 .473-.473.733-1.1.733-1.768s-.26-1.295-.732-1.768l-5.318-5.318c-.781-.781-.781-2.047 0-2.828l5.318-5.318c.472-.473.732-1.1.732-1.768s-.26-1.295-.732-1.768c-.944-.945-2.591-.944-3.535-.001l-5.319 5.319c-.78.781-2.048.781-2.828 0l-5.318-5.318c-.944-.944-2.591-.944-3.535 0-.473.473-.733 1.1-.733 1.768s.26 1.295.732 1.768l5.318 5.318c.781.781.781 2.047 0 2.828l-5.318 5.318c-.472.473-.732 1.1-.732 1.768s.26 1.295.732 1.768c.945.944 2.592.944 3.535.001z" fill="#ff7878"/><path d="m89 62.5c0 1.736.676 3.369 1.904 4.596 1.227 1.228 2.859 1.904 4.596 1.904s3.369-.676 4.596-1.904l3.904-3.904 3.904 3.903c1.227 1.229 2.859 1.905 4.596 1.905s3.369-.676 4.596-1.903c1.228-1.228 1.904-2.86 1.904-4.597s-.676-3.369-1.904-4.596l-3.904-3.904 3.903-3.903c1.228-1.228 1.904-2.86 1.904-4.597s-.676-3.369-1.904-4.596c-1.226-1.228-2.858-1.904-4.595-1.904s-3.369.676-4.596 1.904l-3.904 3.904-3.904-3.903c-1.227-1.229-2.859-1.905-4.596-1.905s-3.369.676-4.596 1.903c-1.228 1.228-1.904 2.861-1.904 4.597s.676 3.369 1.904 4.596l3.904 3.904-3.903 3.903c-1.229 1.228-1.905 2.861-1.905 4.597zm4.732-1.768 5.318-5.318c.781-.781.781-2.047 0-2.828l-5.318-5.318c-.472-.473-.732-1.1-.732-1.768s.26-1.295.733-1.769c.943-.943 2.59-.943 3.535 0l5.318 5.318c.78.781 2.048.781 2.828 0l5.319-5.319c.943-.943 2.59-.944 3.535.001.472.472.732 1.1.732 1.768s-.26 1.295-.732 1.768l-5.318 5.318c-.781.781-.781 2.047 0 2.828l5.318 5.318c.472.472.732 1.1.732 1.768s-.26 1.295-.733 1.769c-.943.943-2.59.944-3.535 0l-5.318-5.318c-.39-.391-.902-.586-1.414-.586s-1.024.195-1.414.586l-5.319 5.319c-.943.943-2.59.944-3.535-.001-.472-.473-.732-1.1-.732-1.768s.26-1.295.732-1.768z" fill="#2d3b72"/></g></svg>